<svg xmlns="http://www.w3.org/2000/svg" xmlns:xlink="http://www.w3.org/1999/xlink"><defs><linearGradient id="sprite_header-mark-a" x1="12.503" y1="15.885" x2="39.315" y2="43.307" gradientUnits="userSpaceOnUse"><stop stop-color="#F15A24"/><stop offset="1" stop-color="#D4145A"/></linearGradient><linearGradient id="sprite_header-mark-b" x1=".524" y1=".503" x2="55.153" y2="57.408" gradientUnits="userSpaceOnUse"><stop stop-color="#F15A24"/><stop offset="1" stop-color="#D4145A"/></linearGradient><linearGradient id="sprite_header-mark-c" x1="35.874" y1="9.364" x2="46.674" y2="20.614" gradientUnits="userSpaceOnUse"><stop stop-color="#F15A24"/><stop offset="1" stop-color="#D4145A"/></linearGradient><linearGradient id="sprite_lead-pointer-a" x1="14.668" y1="4.629" x2="201.511" y2="-21.695" gradientUnits="userSpaceOnUse"><stop stop-color="#fff"/><stop offset="1" stop-color="#fff" stop-opacity="0"/></linearGradient><linearGradient id="sprite_logo-a" x1="0" y1="0" x2="10.495" y2="80.634" gradientUnits="userSpaceOnUse"><stop stop-color="#F15A24"/><stop offset="1" stop-color="#D4145A"/></linearGradient></defs><symbol id="sprite_add-icon" viewBox="0 0 6 10"><g fill="none"><path d="m1 1 4 4-4 4" stroke="#fff" stroke-width="1.5" stroke-linecap="round" stroke-linejoin="round"/></g></symbol><symbol id="sprite_b-appmarket" viewBox="0 0 162 39"><g fill="none"><path d="M52.683 5.34a3.828 3.828 0 0 1-1.032 2.805c-.394.412-.87.736-1.395.95a3.992 3.992 0 0 1-1.658.292 4.24 4.24 0 0 1-1.664-.324 4.277 4.277 0 0 1-1.409-.95A4.366 4.366 0 0 1 44.28 5a4.368 4.368 0 0 1 .312-1.684c.214-.535.531-1.02.933-1.43a4.28 4.28 0 0 1 1.41-.95 4.242 4.242 0 0 1 1.663-.325 4.248 4.248 0 0 1 1.706.352c.5.205.946.527 1.3.939l-.73.739a2.808 2.808 0 0 0-1.024-.766 2.78 2.78 0 0 0-1.252-.231 3.183 3.183 0 0 0-2.32.983A3.253 3.253 0 0 0 45.37 5c-.01.654.171 1.297.523 1.846.351.55.856.98 1.45 1.24a3.236 3.236 0 0 0 3.575-.669 2.658 2.658 0 0 0 .697-1.701h-3.018v-1.01h4.027c.038.21.058.422.058.635ZM59.068 1.832h-3.785v2.664h3.413v1.009h-3.413v2.663h3.785V9.2h-4.852V.8h4.852v1.032ZM63.571 9.2h-1.068V1.832H60.18V.8h5.712v1.032H63.57V9.2ZM70.025 9.2V.8h1.067v8.4h-1.067ZM75.83 9.2h-1.07V1.832h-2.32V.8h5.71v1.032h-2.32V9.2ZM88.963 8.114a4.292 4.292 0 0 1-3.047 1.273 4.293 4.293 0 0 1-3.047-1.273c-.4-.41-.715-.896-.926-1.431A4.336 4.336 0 0 1 81.644 5a4.335 4.335 0 0 1 .3-1.683c.21-.535.524-1.022.924-1.431a4.3 4.3 0 0 1 1.398-.944 4.262 4.262 0 0 1 4.691.95c.4.408.716.893.927 1.427.211.535.314 1.106.303 1.681a4.34 4.34 0 0 1-1.224 3.114Zm-5.306-.703c.6.605 1.411.944 2.258.944.846 0 1.658-.34 2.257-.944A3.32 3.32 0 0 0 89.097 5a3.32 3.32 0 0 0-.924-2.411 3.178 3.178 0 0 0-2.257-.944c-.847 0-1.659.34-2.258.944A3.322 3.322 0 0 0 82.735 5a3.322 3.322 0 0 0 .922 2.411ZM91.686 9.2V.8h1.3l4.039 6.535h.046l-.046-1.62V.8h1.068v8.4H96.98l-4.226-6.851h-.046l.046 1.619V9.2h-1.067Z" fill="#fff" stroke="#fff" stroke-width=".2" stroke-miterlimit="10"/><path d="M81.38 21.452a5.848 5.848 0 0 0-3.266 1.015 5.941 5.941 0 0 0-2.16 2.677 6.014 6.014 0 0 0-.326 3.438 5.975 5.975 0 0 0 1.617 3.043 5.872 5.872 0 0 0 3.017 1.623 5.834 5.834 0 0 0 3.4-.342 5.906 5.906 0 0 0 2.641-2.194 6 6 0 0 0 .992-3.305 5.926 5.926 0 0 0-.428-2.298 5.875 5.875 0 0 0-1.28-1.947 5.802 5.802 0 0 0-1.931-1.287 5.753 5.753 0 0 0-2.275-.423Zm0 9.563a3.549 3.549 0 0 1-2.053-.481 3.604 3.604 0 0 1-1.43-1.566 3.653 3.653 0 0 1 .61-4.027 3.571 3.571 0 0 1 1.827-1.063 3.544 3.544 0 0 1 2.103.162c.669.266 1.243.73 1.648 1.33.404.6.62 1.31.62 2.037a3.478 3.478 0 0 1-.91 2.512 3.378 3.378 0 0 1-2.415 1.096Zm-12.9-9.563a5.848 5.848 0 0 0-3.267 1.015 5.942 5.942 0 0 0-2.16 2.677 6.014 6.014 0 0 0-.326 3.438 5.974 5.974 0 0 0 1.617 3.043 5.872 5.872 0 0 0 3.017 1.623 5.833 5.833 0 0 0 3.4-.342 5.905 5.905 0 0 0 2.641-2.194 6 6 0 0 0 .992-3.305 5.925 5.925 0 0 0-.428-2.298 5.876 5.876 0 0 0-1.28-1.947 5.802 5.802 0 0 0-1.931-1.287 5.753 5.753 0 0 0-2.275-.423Zm0 9.563a3.549 3.549 0 0 1-2.054-.481 3.603 3.603 0 0 1-1.43-1.566 3.652 3.652 0 0 1 .61-4.027 3.571 3.571 0 0 1 1.828-1.063 3.544 3.544 0 0 1 2.102.162c.669.266 1.243.73 1.648 1.33.404.6.62 1.31.62 2.037a3.478 3.478 0 0 1-.91 2.512 3.378 3.378 0 0 1-2.415 1.096ZM53.134 23.28v2.526h5.98a5.3 5.3 0 0 1-1.36 3.18 6.118 6.118 0 0 1-2.117 1.42 6.063 6.063 0 0 1-2.503.43 6.616 6.616 0 0 1-4.645-2 6.759 6.759 0 0 1-1.916-4.721c0-1.767.688-3.463 1.916-4.721a6.617 6.617 0 0 1 4.645-2c1.679-.023 3.299.626 4.508 1.804l1.763-1.782a8.712 8.712 0 0 0-2.882-1.913 8.637 8.637 0 0 0-3.39-.636 9.066 9.066 0 0 0-3.542.665 9.14 9.14 0 0 0-3.014 1.996 9.254 9.254 0 0 0-2.018 3.016 9.334 9.334 0 0 0 0 7.14 9.255 9.255 0 0 0 2.018 3.018 9.14 9.14 0 0 0 3.014 1.995 9.066 9.066 0 0 0 3.543.665 8.285 8.285 0 0 0 3.467-.603 8.361 8.361 0 0 0 2.915-1.99 8.399 8.399 0 0 0 2.165-5.91 8.307 8.307 0 0 0-.134-1.579h-8.413Zm62.76 1.962a5.533 5.533 0 0 0-1.93-2.698 5.44 5.44 0 0 0-3.113-1.09 5.556 5.556 0 0 0-2.2.47 5.606 5.606 0 0 0-1.839 1.305 5.674 5.674 0 0 0-1.182 1.932 5.723 5.723 0 0 0-.336 2.247 5.869 5.869 0 0 0 1.672 4.232 5.767 5.767 0 0 0 1.914 1.29 5.71 5.71 0 0 0 2.261.432 5.813 5.813 0 0 0 2.784-.693 5.88 5.88 0 0 0 2.125-1.946l-2.008-1.353a3.387 3.387 0 0 1-1.235 1.21 3.34 3.34 0 0 1-1.666.436 2.973 2.973 0 0 1-1.703-.458 3.027 3.027 0 0 1-1.154-1.346l7.878-3.293-.268-.677Zm-8.034 1.985a3.295 3.295 0 0 1 .818-2.39 3.211 3.211 0 0 1 2.262-1.083c.447-.03.893.074 1.282.299.388.224.703.56.905.964l-5.267 2.21ZM101.456 33h2.588V15.498h-2.588V33Zm-4.24-10.217h-.09a4.085 4.085 0 0 0-1.408-1.004 4.045 4.045 0 0 0-1.694-.327 5.87 5.87 0 0 0-4.006 1.831 5.994 5.994 0 0 0-1.64 4.124c0 1.536.588 3.014 1.64 4.123a5.87 5.87 0 0 0 4.006 1.831 3.98 3.98 0 0 0 1.699-.331 4.019 4.019 0 0 0 1.403-1.022h.09v.857c0 2.278-1.205 3.496-3.147 3.496a3.237 3.237 0 0 1-1.803-.603A3.29 3.29 0 0 1 91.1 34.24l-2.254.947a5.663 5.663 0 0 0 2.08 2.566c.93.626 2.024.958 3.142.952 3.035 0 5.601-1.804 5.601-6.202V21.813h-2.454v.97Zm-2.968 8.232a3.57 3.57 0 0 1-2.336-1.158 3.643 3.643 0 0 1-.945-2.45c0-.908.337-1.782.945-2.45a3.57 3.57 0 0 1 2.336-1.16 3.292 3.292 0 0 1 2.335 1.142 3.365 3.365 0 0 1 .811 2.49 3.36 3.36 0 0 1-.819 2.47 3.294 3.294 0 0 1-2.327 1.116Zm33.772-15.517h-6.194V33h2.585v-6.63h3.609c.731.04 1.462-.07 2.15-.326a5.384 5.384 0 0 0 1.848-1.157 5.483 5.483 0 0 0 0-7.906 5.385 5.385 0 0 0-1.848-1.158 5.336 5.336 0 0 0-2.15-.325Zm.067 8.435h-3.676v-5.999h3.676a2.938 2.938 0 0 1 2.138.856 3.03 3.03 0 0 1 0 4.287 2.957 2.957 0 0 1-2.138.856Zm15.973-2.513a4.812 4.812 0 0 0-2.701.644 4.892 4.892 0 0 0-1.911 2.035l2.295.969c.228-.423.572-.77.992-.998a2.425 2.425 0 0 1 1.37-.286 2.47 2.47 0 0 1 1.819.558c.51.422.833 1.031.899 1.694v.18a5.67 5.67 0 0 0-2.696-.675c-2.473 0-4.99 1.373-4.99 3.94a4.074 4.074 0 0 0 1.343 2.845 3.987 3.987 0 0 0 2.956 1.005c.651.039 1.3-.1 1.88-.4a3.662 3.662 0 0 0 1.418-1.311h.089v1.351h2.495v-6.71c0-3.107-2.295-4.841-5.258-4.841Zm-.312 9.592c-.846 0-2.027-.428-2.027-1.486 0-1.351 1.47-1.869 2.74-1.869a4.567 4.567 0 0 1 2.362.585 3.179 3.179 0 0 1-1.024 1.967 3.115 3.115 0 0 1-2.051.803Zm14.659-9.21-2.963 7.589h-.089l-3.074-7.588h-2.785l4.612 10.605-2.629 5.9h2.695l7.107-16.505h-2.874ZM135.127 33h2.584V15.498h-2.584V33Z" fill="#fff"/><path d="M.964 3.52v-.009c-.04-.67.172-1.329.593-1.846l17.011 17.193v.286L1.557 36.337a2.672 2.672 0 0 1-.594-1.846V3.52Z" fill="#fff" stroke="#E5E5E5" stroke-width=".3"/><path d="m24.494 13.219 6.777 3.892c.94.54 1.377 1.23 1.377 1.89 0 .661-.436 1.352-1.377 1.892l-6.777 3.892-.03.017-5.596-5.658v-.286l5.597-5.656.029.017ZM4.259 36.405l-.01.006-.009.007a2.088 2.088 0 0 1-2.563.02l17.041-17.223 5.607 5.667L4.259 36.405ZM4.24 1.585l.01.007.009.005 20.066 11.524-5.607 5.667L1.677 1.564a2.088 2.088 0 0 1 2.563.021Z" fill="#fff" stroke="#1A1A28" stroke-width=".3"/></g></symbol><symbol id="sprite_b-appstore" viewBox="0 0 134 35"><g fill="none"><path d="M19.973 16.406a6.716 6.716 0 0 1 .864-3.212 6.66 6.66 0 0 1 2.295-2.393A6.807 6.807 0 0 0 20.8 8.707a6.756 6.756 0 0 0-3.018-.82C15.53 7.65 13.347 9.245 12.2 9.245c-1.17 0-2.936-1.333-4.838-1.293-1.23.04-2.43.4-3.48 1.045a7.154 7.154 0 0 0-2.517 2.637c-2.593 4.52-.66 11.164 1.825 14.818 1.242 1.79 2.695 3.788 4.595 3.717 1.86-.078 2.554-1.194 4.8-1.194 2.223 0 2.875 1.194 4.814 1.149 1.995-.033 3.253-1.797 4.452-3.603a14.84 14.84 0 0 0 2.036-4.175 6.422 6.422 0 0 1-2.845-2.377 6.487 6.487 0 0 1-1.07-3.562ZM16.31 5.485A6.608 6.608 0 0 0 17.805.772a6.632 6.632 0 0 0-4.301 2.24 6.27 6.27 0 0 0-1.533 4.539 5.464 5.464 0 0 0 2.405-.531 5.502 5.502 0 0 0 1.934-1.535ZM43.48 25.639h-6.346l-1.524 4.53h-2.688l6.011-16.764h2.793l6.011 16.765h-2.734l-1.523-4.532Zm-5.689-2.091h5.03l-2.479-7.354h-.07l-2.48 7.354ZM60.719 24.06c0 3.797-2.02 6.238-5.066 6.238a4.093 4.093 0 0 1-2.215-.517 4.13 4.13 0 0 1-1.604-1.622h-.058v6.054h-2.491V17.947h2.411v2.033h.046a4.32 4.32 0 0 1 1.636-1.618 4.284 4.284 0 0 1 2.23-.543c3.08 0 5.11 2.453 5.11 6.24Zm-2.561 0c0-2.475-1.27-4.102-3.208-4.102-1.904 0-3.184 1.66-3.184 4.101 0 2.463 1.28 4.112 3.184 4.112 1.938 0 3.208-1.615 3.208-4.112ZM74.08 24.06c0 3.797-2.02 6.238-5.067 6.238a4.092 4.092 0 0 1-2.214-.517 4.13 4.13 0 0 1-1.605-1.622h-.058v6.054h-2.491V17.947h2.412v2.033h.045a4.32 4.32 0 0 1 1.637-1.618c.68-.38 1.45-.568 2.228-.543 3.081 0 5.112 2.453 5.112 6.24Zm-2.562 0c0-2.475-1.27-4.102-3.208-4.102-1.903 0-3.184 1.66-3.184 4.101 0 2.463 1.28 4.112 3.184 4.112 1.938 0 3.208-1.615 3.208-4.112ZM82.91 25.499c.184 1.662 1.788 2.754 3.98 2.754 2.1 0 3.61-1.092 3.61-2.59 0-1.302-.91-2.081-3.068-2.615l-2.158-.523c-3.057-.744-4.477-2.184-4.477-4.52 0-2.892 2.504-4.88 6.059-4.88 3.518 0 5.93 1.988 6.01 4.88h-2.515c-.15-1.673-1.524-2.683-3.53-2.683-2.008 0-3.382 1.022-3.382 2.51 0 1.184.878 1.882 3.024 2.416l1.834.453c3.416.814 4.835 2.195 4.835 4.647 0 3.137-2.48 5.101-6.427 5.101-3.692 0-6.185-1.918-6.346-4.95h2.55ZM98.51 15.055v2.892h2.308v1.987H98.51v6.738c0 1.047.462 1.535 1.477 1.535a7.71 7.71 0 0 0 .819-.058v1.974c-.456.086-.92.125-1.384.117-2.457 0-3.416-.93-3.416-3.3v-7.006h-1.765v-1.987h1.765v-2.892h2.504ZM102.155 24.06c0-3.846 2.249-6.263 5.757-6.263 3.519 0 5.758 2.416 5.758 6.262 0 3.856-2.227 6.262-5.758 6.262-3.53 0-5.757-2.406-5.757-6.262Zm8.977 0c0-2.639-1.201-4.196-3.22-4.196s-3.218 1.569-3.218 4.195c0 2.649 1.199 4.194 3.218 4.194s3.22-1.545 3.22-4.194ZM115.725 17.947h2.376v2.08h.058a2.91 2.91 0 0 1 1.07-1.626 2.882 2.882 0 0 1 1.849-.582c.288 0 .574.03.854.094v2.347a3.461 3.461 0 0 0-1.119-.152 2.496 2.496 0 0 0-1.941.805 2.548 2.548 0 0 0-.656 2.007v7.25h-2.491V17.947ZM133.42 26.58c-.335 2.219-2.481 3.741-5.227 3.741-3.531 0-5.723-2.382-5.723-6.204 0-3.834 2.204-6.32 5.618-6.32 3.359 0 5.471 2.323 5.471 6.029v.86h-8.574v.151a3.19 3.19 0 0 0 .857 2.473 3.142 3.142 0 0 0 2.409.989 2.732 2.732 0 0 0 1.685-.392 2.76 2.76 0 0 0 1.118-1.327h2.366Zm-8.423-3.648h6.069a2.97 2.97 0 0 0-.179-1.189 2.931 2.931 0 0 0-1.625-1.693 2.9 2.9 0 0 0-1.174-.22 3.058 3.058 0 0 0-2.187.902 3.1 3.1 0 0 0-.904 2.2ZM37.48.787a3.517 3.517 0 0 1 2.822 1.104 3.569 3.569 0 0 1 .941 2.898c0 2.574-1.38 4.053-3.764 4.053h-2.89V.787h2.89Zm-1.648 6.916h1.508a2.5 2.5 0 0 0 2.004-.817 2.536 2.536 0 0 0 .635-2.08 2.556 2.556 0 0 0-.645-2.067 2.521 2.521 0 0 0-1.994-.814h-1.508v5.778ZM42.647 5.8a2.9 2.9 0 0 1 .73-2.211 2.862 2.862 0 0 1 2.117-.943 2.843 2.843 0 0 1 2.117.943 2.884 2.884 0 0 1 .73 2.21 2.898 2.898 0 0 1-.728 2.216 2.86 2.86 0 0 1-2.119.944 2.844 2.844 0 0 1-2.118-.944 2.886 2.886 0 0 1-.729-2.215Zm4.469 0c0-1.318-.588-2.088-1.62-2.088-1.036 0-1.618.77-1.618 2.088 0 1.328.583 2.093 1.618 2.093 1.032 0 1.62-.77 1.62-2.093ZM55.91 8.842h-1.236l-1.247-4.477h-.095L52.09 8.842h-1.224l-1.664-6.079h1.208l1.082 4.639h.089l1.24-4.639h1.144l1.241 4.639h.094l1.077-4.639h1.191L55.91 8.842ZM58.968 2.763h1.147v.966h.089a1.797 1.797 0 0 1 1.802-1.083 1.951 1.951 0 0 1 1.584.624 1.98 1.98 0 0 1 .505 1.637v3.935h-1.191V5.208c0-.977-.422-1.463-1.303-1.463a1.376 1.376 0 0 0-1.073.437 1.396 1.396 0 0 0-.369 1.104v3.556h-1.191V2.763ZM65.993.39h1.192v8.452h-1.192V.39ZM68.841 5.8a2.898 2.898 0 0 1 .731-2.211 2.861 2.861 0 0 1 2.117-.943 2.844 2.844 0 0 1 2.116.943 2.886 2.886 0 0 1 .731 2.21 2.9 2.9 0 0 1-.729 2.216 2.86 2.86 0 0 1-2.118.944 2.844 2.844 0 0 1-2.119-.944 2.884 2.884 0 0 1-.729-2.215Zm4.469 0c0-1.318-.588-2.088-1.62-2.088-1.035 0-1.618.77-1.618 2.088 0 1.328.583 2.093 1.618 2.093 1.032 0 1.62-.77 1.62-2.093ZM75.79 7.123c0-1.094.81-1.725 2.246-1.815l1.635-.095v-.525c0-.642-.421-1.004-1.236-1.004-.665 0-1.126.246-1.258.676h-1.154c.122-1.045 1.098-1.714 2.467-1.714 1.514 0 2.368.758 2.368 2.042v4.154H79.71v-.854h-.094a2.02 2.02 0 0 1-1.813.954 1.812 1.812 0 0 1-1.407-.46 1.835 1.835 0 0 1-.606-1.36Zm3.881-.52v-.508l-1.474.095c-.832.056-1.209.34-1.209.877 0 .547.472.865 1.12.865a1.414 1.414 0 0 0 1.061-.33 1.434 1.434 0 0 0 .502-.999ZM82.423 5.8c0-1.921.981-3.138 2.507-3.138A1.997 1.997 0 0 1 86.78 3.73h.089V.39h1.191v8.452H86.92v-.96h-.095a2.084 2.084 0 0 1-1.896 1.06c-1.535 0-2.506-1.217-2.506-3.142Zm1.231 0c0 1.29.604 2.065 1.613 2.065 1.005 0 1.625-.787 1.625-2.06 0-1.267-.627-2.065-1.625-2.065-1.003 0-1.613.781-1.613 2.06ZM92.99 5.8a2.9 2.9 0 0 1 .732-2.211 2.861 2.861 0 0 1 2.116-.943 2.843 2.843 0 0 1 2.117.943 2.884 2.884 0 0 1 .73 2.21 2.898 2.898 0 0 1-.728 2.216 2.86 2.86 0 0 1-2.119.944 2.844 2.844 0 0 1-2.118-.944 2.886 2.886 0 0 1-.73-2.215Zm4.47 0c0-1.318-.588-2.088-1.62-2.088-1.036 0-1.618.77-1.618 2.088 0 1.328.582 2.093 1.618 2.093 1.032 0 1.62-.77 1.62-2.093ZM100.284 2.763h1.147v.966h.089c.151-.347.406-.638.729-.832a1.794 1.794 0 0 1 1.072-.251 1.95 1.95 0 0 1 1.585.624 1.984 1.984 0 0 1 .505 1.637v3.935h-1.191V5.208c0-.977-.422-1.463-1.303-1.463a1.376 1.376 0 0 0-1.073.437 1.412 1.412 0 0 0-.369 1.104v3.556h-1.191V2.763ZM112.144 1.25v1.54h1.308v1.011h-1.308v3.126c0 .637.26.916.853.916.152 0 .304-.01.455-.028v1a3.886 3.886 0 0 1-.648.06c-1.326 0-1.853-.469-1.853-1.64V3.8h-.959v-1.01h.959V1.25h1.193ZM115.079.39h1.181v3.35h.094c.159-.35.421-.643.75-.837.329-.195.71-.283 1.091-.252a1.978 1.978 0 0 1 1.569.64 2.012 2.012 0 0 1 .51 1.626v3.925h-1.192V5.213c0-.97-.449-1.463-1.291-1.463a1.404 1.404 0 0 0-1.442.933c-.07.195-.097.403-.078.609v3.55h-1.192V.39ZM127.222 7.2a2.469 2.469 0 0 1-.991 1.358 2.438 2.438 0 0 1-1.625.401 2.73 2.73 0 0 1-2.116-.919 2.767 2.767 0 0 1-.673-2.218 2.82 2.82 0 0 1 .672-2.228 2.788 2.788 0 0 1 2.111-.948c1.68 0 2.694 1.155 2.694 3.064v.419h-4.263v.067a1.62 1.62 0 0 0 .421 1.229 1.593 1.593 0 0 0 1.186.513 1.44 1.44 0 0 0 1.437-.737h1.147Zm-4.191-1.958h3.049a1.482 1.482 0 0 0-.397-1.12 1.454 1.454 0 0 0-1.089-.455 1.538 1.538 0 0 0-1.45.969 1.569 1.569 0 0 0-.113.606Z" fill="#fff"/></g></symbol><symbol id="sprite_faq-add-q" viewBox="0 0 25 24"><g fill="none"><path d="M19.5 5h-14a2 2 0 0 0-2 2v10a2 2 0 0 0 2 2h14a2 2 0 0 0 2-2V7a2 2 0 0 0-2-2Z" stroke="#fff" stroke-width="2" stroke-linecap="round" stroke-linejoin="round"/><path d="m3.5 7 9 6 9-6" stroke="#fff" stroke-width="2" stroke-linecap="round" stroke-linejoin="round"/></g></symbol><symbol id="sprite_header-mark" viewBox="0 0 58 58"><g fill="none"><path fill-rule="evenodd" clip-rule="evenodd" d="M23.96 19.409v2.115c0 .972-.821 1.76-1.834 1.76-1.012 0-1.832-.788-1.832-1.76v-3.833c0-.925.745-1.692 1.706-1.756 2.01-.133 4.97-.06 7.506.924 1.291.5 2.555 1.268 3.498 2.442.96 1.195 1.495 2.696 1.495 4.486 0 2.172-.937 3.777-2.153 4.871a14.75 14.75 0 0 1 2.84 1.868c2.602 2.19 4.658 5.556 4.746 10.386.018.972-.788 1.773-1.8 1.79-1.013.017-1.848-.756-1.865-1.728-.07-3.792-1.636-6.234-3.498-7.801-1.873-1.577-4.105-2.31-5.558-2.505H14.336c-1.012 0-1.833-.788-1.833-1.76 0-.971.821-1.76 1.833-1.76h12.995c.375 0 1.33-.2 2.162-.783.75-.527 1.34-1.313 1.34-2.578 0-1.083-.309-1.81-.731-2.336-.44-.548-1.099-.992-1.968-1.329-1.253-.486-2.766-.68-4.175-.713Z" fill="url(#sprite_header-mark-a)"/><path fill-rule="evenodd" clip-rule="evenodd" d="M.524 27.84C.524 12.742 13.273.503 29 .503c1.302 0 2.357 1.013 2.357 2.262 0 1.25-1.055 2.262-2.357 2.262-13.124 0-23.763 10.214-23.763 22.813 0 12.599 10.639 22.812 23.763 22.812 12.329 0 22.464-9.013 23.648-20.55h-8.82c-1.302 0-2.357-1.013-2.357-2.262 0-1.25 1.055-2.262 2.356-2.262H55.12c1.301 0 2.356 1.012 2.356 2.262 0 15.098-12.749 27.337-28.476 27.337C13.273 55.177.524 42.937.524 27.84Z" fill="url(#sprite_header-mark-b)"/><path fill-rule="evenodd" clip-rule="evenodd" d="M41.503 12.883c-1.084 0-1.964.844-1.964 1.885 0 1.042.88 1.886 1.964 1.886 1.085 0 1.964-.844 1.964-1.886 0-1.04-.879-1.885-1.964-1.885Zm-5.63 1.885c0-2.984 2.521-5.404 5.63-5.404 3.11 0 5.63 2.42 5.63 5.404 0 2.985-2.52 5.405-5.63 5.405-3.109 0-5.63-2.42-5.63-5.405Z" fill="url(#sprite_header-mark-c)"/></g></symbol><symbol id="sprite_lead-pointer" viewBox="0 0 235 135"><g fill="none"><path d="M233.835 108.145C168.642 120.589 64.124 63.663 128.39 21.503 206.14-29.505 75.863 311.178 6.219 1.19m0 0L18 12.972M6.219 1.19 1 17" stroke="url(#sprite_lead-pointer-a)" stroke-width="2" stroke-linecap="round" stroke-linejoin="round"/></g></symbol><symbol id="sprite_logo" viewBox="0 0 315 41"><g fill="none"><path fill-rule="evenodd" clip-rule="evenodd" d="M14.574.092c-1.451.21-2.883 1.741-2.883 3.086 0 .486.326 1.282.726 1.77.673.823 1.066.892 5.45.958 8.863.134 11.877 2.086 10.911 7.063-.413 2.133-1.172 3.214-2.786 3.972-1.202.564-2.595.605-11.97.354C2.272 16.979.997 17.135.22 18.99c-.497 1.189-.128 2.683.865 3.499.411.337 4.307.523 13.708.656 14.738.208 14.318.13 17.345 3.21 2.323 2.364 4.06 5.976 4.387 9.12.296 2.85 1.09 3.956 2.84 3.956.658 0 1.475-.374 1.981-.907 1.782-1.876.723-8.553-2.002-12.635-1.384-2.073-4.275-5.149-5.775-6.144l-.91-.604.837-1.59c.461-.875.984-2.617 1.162-3.87C35.846 5.324 30.502.414 19.816.044c-2.18-.075-4.54-.054-5.242.047Zm178.833 2.124c-9.942 1.471-17.429 11.771-15.721 21.627 1.264 7.29 6.464 13.098 13.667 15.262 3.513 1.055 8.86.866 12.125-.429 4.997-1.982 9.381-6.269 11.125-10.878 1.114-2.947 1.771-8.082 1.174-9.186-.43-.796-.617-.812-6.254-.539-3.196.155-6.121.442-6.5.639-.844.437-1.268 1.95-.926 3.3.333 1.312 2.318 2.13 5.169 2.13 2.577 0 2.644.19 1.044 2.948-4.348 7.497-13.932 9.118-20.588 3.482-2.037-1.725-3.994-5.587-4.296-8.48-.473-4.532 2.164-9.728 6.221-12.262 1.755-1.096 5.193-2.153 7.003-2.153 1.719 0 2.9-1.172 2.9-2.88 0-2.422-1.878-3.211-6.143-2.58Zm-143.293.777c-.791.783-.81 1.142-.694 12.84.114 11.447.163 12.125.994 13.907 1.306 2.797 4.84 6.252 7.761 7.587 2.192 1 2.898 1.125 6.426 1.125 3.607 0 4.194-.109 6.54-1.21 4.68-2.2 7.92-6.436 8.731-11.424.453-2.778.1-4.071-1.366-5.022-1.255-.813-3.218-.45-3.963.734-.294.467-.645 1.716-.78 2.777-.656 5.107-4.825 8.374-10.197 7.989-2.907-.208-5.156-1.649-6.882-4.41l-1.199-1.915-.198-11.336c-.186-10.645-.245-11.37-.968-11.89-1.135-.821-3.251-.696-4.205.248Zm24.593-.02c-1.09 1.077-1.052 3.258.075 4.296 1.962 1.809 5.077.45 5.077-2.215 0-1.725-1.183-2.866-2.972-2.866-.859 0-1.69.299-2.18.784Zm45.762-.412c-1.906.765-1.956 1.057-2.166 12.673l-.198 10.967-11.736-10.983C99.914 9.177 94.263 4.038 93.812 3.799c-1.294-.685-2.415-.514-3.468.528l-.973.962v30.65l.973.962c1.562 1.546 3.804 1.249 4.788-.634.467-.892.58-3.153.58-11.55 0-6.183.149-10.388.365-10.31.2.072 4.488 3.987 9.528 8.7 14.709 13.757 14.502 13.58 15.999 13.58.864 0 1.613-.311 2.179-.907.854-.9.861-1.036.861-16.27 0-14.839-.027-15.388-.792-16.146-.436-.43-.957-.784-1.157-.784-.2 0-.602-.077-.892-.171-.29-.095-.891-.026-1.334.152Zm27.641-.094c-1.469.278-3.499 2.576-3.784 4.282-.343 2.054-.317 5.332.047 5.898.352.546 12.105.905 12.634.386.184-.181.331-1.861.326-3.734-.006-2.88-.143-3.592-.886-4.625-1.445-2.006-4.761-2.884-8.337-2.207Zm75.581.455c-.663.53-.916 1.14-.916 2.207 0 1.066.253 1.675.916 2.206.842.675 1.744.734 11.305.734 10.348 0 10.393-.004 11.252-.907 1.144-1.206 1.12-3.029-.056-4.122-.893-.83-1.186-.852-11.251-.852-9.507 0-10.408.059-11.25.734Zm33.327.05c-1.212 1.2-1.081 3.64.251 4.676.934.727 1.585.813 6.143.813h5.099v15.093c0 14.571.027 15.12.793 15.878.528.522 1.321.784 2.378.784 1.057 0 1.849-.262 2.378-.784.765-.757.792-1.307.792-15.878V8.461h5.099c4.558 0 5.21-.086 6.143-.813 1.333-1.036 1.464-3.477.252-4.676-.763-.754-1.321-.784-14.664-.784s-13.902.03-14.664.784Zm43.992-.018c-3.059 1.04-5.571 3.773-6.51 7.083-1.453 5.124.747 8.871 7.559 12.874 3.863 2.27 5.971 4.139 6.29 5.574.58 2.61-1.532 4.653-4.262 4.12-.711-.138-2.202-.354-3.311-.48-1.859-.21-2.085-.144-2.873.848-2.959 3.72 2.897 7.453 9.55 6.087 4.64-.953 7.509-4.592 7.547-9.573.034-4.612-1.834-7.152-8.359-11.362-5.937-3.83-6.714-4.862-5.463-7.255.73-1.395 2.156-2.017 4.625-2.017 1.574 0 2.18-.197 2.953-.963.958-.946 1.256-2.556.727-3.92-.697-1.798-4.743-2.283-8.473-1.016ZM154.202 6.138c.827.769.976 1.226.879 2.702l-.118 1.777h-4.161c-4.082 0-4.164-.018-4.295-.933-.291-2.036.324-3.609 1.643-4.198 1.835-.821 4.812-.5 6.052.652Zm-9.677 10.097c-.291.193-.47.772-.396 1.287.13.913.238.939 4.469 1.048l4.336.112-4.459 2.947c-4.021 2.658-4.447 3.052-4.336 4.005l.123 1.057 6.45.107c5.504.092 6.483.02 6.682-.495.508-1.308-.581-1.738-4.696-1.853l-3.973-.112 4.407-2.823c3.666-2.35 4.407-2.989 4.407-3.8 0-.536-.133-1.052-.297-1.147-.631-.364-12.212-.668-12.717-.333Zm80.44 1.34c-2.219.569-3.044 2.943-1.638 4.712l.853 1.071h12.171l.821-1.033c1.065-1.338 1.041-2.602-.07-3.822-.849-.932-1.134-.985-5.944-1.1-2.779-.067-5.566.01-6.193.171Zm16.776.865c-1.189 1.176-1.241 2.515-.151 3.885 1.729 2.175 5.519.827 5.519-1.962 0-2.617-3.425-3.844-5.368-1.923Zm-91.255 12.517c-6.67 2.606-7.626 3.368-6.323 5.04.491.63 11.001 5.003 12.024 5.003.687 0 1.381-1.28 1.014-1.868-.156-.25-.955-.731-1.775-1.07l-1.491-.616.118-2.436c.116-2.396.142-2.447 1.621-3.134.826-.385 1.604-.96 1.728-1.28.254-.656-.517-1.762-1.199-1.724-.246.014-2.818.953-5.717 2.085Zm74.041 1.922c-2.045 1.023-2.43 3.668-.74 5.083.735.615 1.891.686 11.209.686 10.348 0 10.393-.004 11.252-.907 1.571-1.656.935-4.126-1.278-4.959-1.624-.61-19.196-.528-20.443.097Zm-72.536 2.044c0 .97-.058 1.765-.128 1.765-.394 0-4.085-1.326-4.353-1.564-.258-.23 3.067-1.756 4.184-1.92.163-.025.297.75.297 1.72Z" fill="url(#sprite_logo-a)"/></g></symbol><symbol id="sprite_more-icon" viewBox="0 0 18 18"><g fill="none"><path d="M9 9.75a.75.75 0 1 0 0-1.5.75.75 0 0 0 0 1.5ZM9 15a.75.75 0 1 0 0-1.5.75.75 0 0 0 0 1.5ZM9 4.5A.75.75 0 1 0 9 3a.75.75 0 0 0 0 1.5Z" fill="#fff" stroke="#fff" stroke-width="1.5" stroke-linecap="round" stroke-linejoin="round"/></g></symbol><symbol id="sprite_open-link"><g fill="none"><path d="M5 12h14" stroke="url(#sprite_open-link-a)" stroke-width="1.5" stroke-linecap="round" stroke-linejoin="round"/><path d="m15 16 4-4" stroke="url(#sprite_open-link-b)" stroke-width="1.5" stroke-linecap="round" stroke-linejoin="round"/><path d="m15 8 4 4" stroke="url(#sprite_open-link-c)" stroke-width="1.5" stroke-linecap="round" stroke-linejoin="round"/><linearGradient id="sprite_open-link-a" x1="5" y1="12" x2="5.142" y2="13.99" gradientUnits="userSpaceOnUse"><stop stop-color="#F15A24"/><stop offset="1" stop-color="#D4145A"/></linearGradient><linearGradient id="sprite_open-link-b" x1="15" y1="12" x2="19" y2="16" gradientUnits="userSpaceOnUse"><stop stop-color="#F15A24"/><stop offset="1" stop-color="#D4145A"/></linearGradient><linearGradient id="sprite_open-link-c" x1="15" y1="8" x2="19" y2="12" gradientUnits="userSpaceOnUse"><stop stop-color="#F15A24"/><stop offset="1" stop-color="#D4145A"/></linearGradient></g></symbol><symbol id="sprite_request-pointer" viewBox="0 0 109 171"><g fill="none"><path d="M49.717 5.37s30.073 19.69 29.79 45.696c-.199 18.349-15.418 33.47-25.703 26.873-5.44-3.49-2.975-10.087 1.303-12.462 7.733-4.292 22.1 9.395 25.184 20.908 10.7 39.93-36.17 76.713-36.17 76.713" stroke="url(#sprite_request-pointer-a)" stroke-width="2" stroke-linecap="round"/><path d="m53.593 163.828-9.79-.033-.504-10.628" stroke="#fff" stroke-width="2" stroke-linecap="round" stroke-linejoin="round"/><linearGradient id="sprite_request-pointer-a" x1="42.359" y1="174.274" x2="-10.929" y2="27.754" gradientUnits="userSpaceOnUse"><stop stop-color="#fff"/><stop offset="1" stop-color="#fff" stop-opacity="0"/></linearGradient></g></symbol><symbol id="sprite_s-instagram" viewBox="0 0 14 14"><g fill="none"><path fill-rule="evenodd" clip-rule="evenodd" d="M7 .6C5.263.6 5.045.608 4.363.64 3.68.67 3.215.778 2.808.936c-.42.164-.778.382-1.133.738a3.142 3.142 0 0 0-.74 1.134C.778 3.215.67 3.68.64 4.36.608 5.044.6 5.262.6 7.001c0 1.737.008 1.955.039 2.637.031.682.139 1.147.297 1.554.164.42.382.778.738 1.134.356.356.713.575 1.134.738.407.159.872.266 1.553.298.683.03.9.038 2.639.038 1.738 0 1.956-.007 2.638-.038.682-.032 1.147-.14 1.554-.298a3.13 3.13 0 0 0 1.133-.738c.356-.356.575-.713.739-1.134.157-.407.265-.872.297-1.553.031-.683.039-.9.039-2.639 0-1.738-.008-1.956-.039-2.639-.032-.681-.14-1.146-.297-1.553a3.141 3.141 0 0 0-.739-1.134 3.128 3.128 0 0 0-1.133-.738C10.784.778 10.319.67 9.637.64 8.955.608 8.737.6 7 .6H7Zm-.574 1.153h.575c1.708 0 1.91.007 2.586.037.624.029.962.133 1.188.22.299.117.512.255.736.48.224.223.362.437.478.735.088.226.192.564.22 1.188.032.675.038.878.038 2.586 0 1.708-.006 1.91-.037 2.585-.029.624-.133.963-.22 1.188a1.98 1.98 0 0 1-.48.735 1.98 1.98 0 0 1-.735.479c-.225.088-.564.192-1.188.22-.675.031-.878.038-2.586.038-1.71 0-1.912-.007-2.587-.037-.624-.03-.962-.134-1.188-.221a1.982 1.982 0 0 1-.736-.479 1.984 1.984 0 0 1-.479-.736c-.088-.225-.192-.564-.22-1.187-.031-.675-.037-.878-.037-2.587s.006-1.91.037-2.585c.028-.624.132-.963.22-1.189.116-.298.255-.512.479-.736.224-.224.437-.362.736-.479.226-.088.564-.192 1.188-.22.59-.027.82-.035 2.012-.036v.001Zm3.99 1.063a.768.768 0 1 0 0 1.536.768.768 0 0 0 0-1.536Zm-3.415.897a3.287 3.287 0 1 0 0 6.574 3.287 3.287 0 0 0 0-6.574Zm0 1.154a2.133 2.133 0 1 1 0 4.267 2.133 2.133 0 0 1 0-4.267Z" fill="#fff"/></g></symbol><symbol id="sprite_s-twitter" viewBox="0 0 12 10"><g fill="none"><path fill-rule="evenodd" clip-rule="evenodd" d="m5.64 2.754.026.415-.42-.05c-1.528-.196-2.862-.857-3.995-1.967L.697.602l-.143.406c-.302.907-.11 1.865.52 2.509.336.356.26.406-.319.195-.201-.068-.377-.12-.394-.094-.059.06.143.83.302 1.136.218.424.663.839 1.15 1.084l.411.195-.486.009c-.47 0-.487.008-.437.186.168.551.831 1.136 1.57 1.39l.52.178-.453.271c-.672.39-1.46.61-2.25.627-.377.009-.688.043-.688.068 0 .085 1.024.56 1.62.746 1.788.55 3.911.313 5.506-.627 1.133-.67 2.267-2 2.795-3.288.286-.687.571-1.94.571-2.542 0-.39.025-.441.495-.907.277-.271.538-.568.588-.653.084-.16.075-.16-.353-.017-.713.255-.814.22-.461-.16.26-.272.57-.763.57-.907 0-.026-.125.017-.268.093a4.685 4.685 0 0 1-.739.288l-.453.144-.411-.28C9.233.5 8.914.33 8.746.28 8.318.16 7.663.178 7.277.313 6.228.695 5.565 1.678 5.641 2.754Z" fill="#fff"/></g></symbol><symbol id="sprite_s-youtube" viewBox="0 0 14 10"><g fill="none"><path fill-rule="evenodd" clip-rule="evenodd" d="M12 .875c.552.15.985.596 1.133 1.162C13.4 3.062 13.4 5.2 13.4 5.2s0 2.138-.268 3.163a1.625 1.625 0 0 1-1.131 1.163C11.003 9.8 7 9.8 7 9.8s-4.003 0-5-.274A1.625 1.625 0 0 1 .866 8.363C.6 7.34.6 5.2.6 5.2s0-2.138.267-3.163C1.015 1.47 1.448 1.026 2 .875 2.997.6 7 .6 7 .6s4.003 0 5 .275ZM5.8 3.4v4l3.2-2-3.2-2Z" fill="#fff"/></g></symbol></svg>