<svg width="none" height="41" viewBox="0 0 315 41" fill="none" xmlns="http://www.w3.org/2000/svg">
<path fill-rule="evenodd" clip-rule="evenodd" d="M14.5738 0.0924189C13.1225 0.301375 11.691 1.83346 11.691 3.17776C11.691 3.66388 12.0175 4.4605 12.4166 4.9482C13.09 5.77069 13.4835 5.84007 17.8661 5.90633C26.7296 6.0404 29.7437 7.99157 28.7782 12.9693C28.3648 15.102 27.6063 16.1832 25.992 16.9406C24.7896 17.5052 23.3969 17.5463 14.0221 17.2946C2.27143 16.9794 0.997246 17.1359 0.220444 18.991C-0.277343 20.1796 0.0920368 21.6741 1.08523 22.4896C1.49622 22.8267 5.39172 23.0133 14.7926 23.1458C29.5312 23.3536 29.1111 23.2756 32.1375 26.3558C34.4608 28.7202 36.1979 32.3317 36.5248 35.4758C36.8205 38.3251 37.6151 39.4319 39.3649 39.4319C40.0228 39.4319 40.84 39.0579 41.3465 38.5247C43.1276 36.6492 42.0694 29.972 39.3443 25.8901C37.9603 23.817 35.0695 20.7414 33.569 19.7461L32.6583 19.1419L33.4965 17.5514C33.9574 16.6768 34.4802 14.9354 34.6585 13.6812C35.8459 5.32455 30.5018 0.41546 19.8157 0.0453762C17.6359 -0.0302871 15.2769 -0.009119 14.5738 0.0924189ZM193.407 2.21647C183.465 3.687 175.978 13.9874 177.686 23.8428C178.95 31.1332 184.15 36.9405 191.353 39.1045C194.866 40.1599 200.213 39.9709 203.478 38.676C208.475 36.6939 212.859 32.4073 214.603 27.7977C215.717 24.8512 216.374 19.7155 215.777 18.6123C215.347 17.8161 215.16 17.8 209.523 18.0732C206.327 18.2277 203.402 18.515 203.023 18.7115C202.179 19.149 201.755 20.6615 202.097 22.012C202.43 23.3242 204.415 24.1424 207.266 24.1424C209.843 24.1424 209.91 24.3313 208.31 27.0905C203.962 34.5874 194.378 36.2081 187.722 30.5722C185.685 28.8472 183.728 24.9845 183.426 22.0928C182.953 17.5604 185.59 12.3636 189.647 9.82982C191.402 8.73368 194.84 7.67677 196.65 7.67677C198.369 7.67677 199.55 6.50498 199.55 4.79726C199.55 2.37486 197.672 1.58568 193.407 2.21647ZM50.1137 2.99308C49.3226 3.77559 49.3032 4.13548 49.4201 15.8323C49.5343 27.2802 49.583 27.9581 50.4145 29.7403C51.7204 32.5371 55.2545 35.9921 58.1754 37.327C60.3667 38.3279 61.0733 38.4518 64.6007 38.4518C68.2084 38.4518 68.795 38.3431 71.1401 37.2415C75.8215 35.0426 79.0603 30.8059 79.8723 25.818C80.3245 23.0404 79.9726 21.7466 78.5058 20.7959C77.2514 19.9828 75.2876 20.3467 74.5429 21.5302C74.2493 21.9968 73.8981 23.2461 73.7622 24.3066C73.1074 29.4137 68.9385 32.6805 63.5659 32.296C60.6592 32.0882 58.41 30.6471 56.6836 27.8867L55.4851 25.9708L55.287 14.6351C55.1007 3.99044 55.042 3.26593 54.3195 2.74413C53.1844 1.92399 51.0677 2.04944 50.1137 2.99308ZM74.707 2.97231C73.6171 4.05041 73.6552 6.23135 74.7819 7.26946C76.7437 9.07754 79.8593 7.71873 79.8593 5.05444C79.8593 3.32947 78.6758 2.18823 76.8868 2.18823C76.028 2.18823 75.1977 2.48697 74.707 2.97231ZM120.469 2.56108C118.563 3.32595 118.513 3.61838 118.303 15.2341L118.105 26.2013L106.369 15.2176C99.9142 9.1767 94.2634 4.03826 93.8116 3.79912C92.518 3.11423 91.3971 3.28475 90.3441 4.32678L89.3711 5.28889V20.614V35.9392L90.3441 36.9013C91.906 38.4467 94.1484 38.1499 95.1325 36.2673C95.599 35.3754 95.7124 33.1141 95.7124 24.7171C95.7124 18.5338 95.861 14.3293 96.0766 14.4069C96.2771 14.4786 100.565 18.3939 105.605 23.1074C120.314 36.864 120.107 36.6876 121.604 36.6876C122.468 36.6876 123.217 36.3755 123.783 35.7804C124.637 34.8807 124.644 34.7439 124.644 19.5108C124.644 4.67102 124.617 4.12177 123.852 3.36435C123.416 2.93311 122.895 2.58027 122.695 2.58027C122.495 2.58027 122.093 2.50304 121.803 2.40895C121.513 2.31447 120.912 2.3831 120.469 2.56108ZM148.11 2.467C146.641 2.74534 144.611 5.04268 144.326 6.74922C143.983 8.80271 144.009 12.0809 144.373 12.6466C144.725 13.1931 156.478 13.5522 157.007 13.0328C157.191 12.8517 157.338 11.1718 157.333 9.29943C157.327 6.41991 157.19 5.70675 156.447 4.67412C155.002 2.66767 151.686 1.78955 148.11 2.467ZM223.691 2.92173C223.028 3.45255 222.775 4.06218 222.775 5.12852C222.775 6.19486 223.028 6.80449 223.691 7.33531C224.533 8.0104 225.435 8.0688 234.996 8.0688C245.344 8.0688 245.389 8.06529 246.248 7.16164C247.392 5.95612 247.368 4.13311 246.192 3.0405C245.299 2.21056 245.006 2.18823 234.941 2.18823C225.434 2.18823 224.533 2.24703 223.691 2.92173ZM257.018 2.97231C255.806 4.17116 255.937 6.6116 257.269 7.64815C258.203 8.37459 258.854 8.46084 263.412 8.46084H268.511V23.5543C268.511 38.1252 268.538 38.6748 269.304 39.4319C269.832 39.9544 270.625 40.2159 271.682 40.2159C272.739 40.2159 273.531 39.9544 274.06 39.4319C274.825 38.6748 274.852 38.1252 274.852 23.5543V8.46084H279.951C284.509 8.46084 285.161 8.37459 286.094 7.64815C287.427 6.6116 287.558 4.17116 286.346 2.97231C285.583 2.21803 285.025 2.18823 271.682 2.18823C258.339 2.18823 257.78 2.21803 257.018 2.97231ZM301.01 2.95427C297.951 3.99395 295.439 6.72686 294.5 10.0372C293.047 15.1608 295.247 18.9083 302.059 22.9114C305.922 25.1813 308.03 27.0497 308.349 28.4854C308.929 31.0959 306.817 33.1377 304.087 32.6057C303.376 32.4673 301.885 32.2509 300.776 32.1251C298.917 31.9145 298.691 31.9808 297.903 32.9726C294.944 36.6931 300.8 40.4257 307.453 39.0598C312.093 38.1068 314.962 34.4679 315 29.4874C315.034 24.8747 313.166 22.3351 306.641 18.1254C300.704 14.2944 299.927 13.2629 301.178 10.8699C301.908 9.47466 303.334 8.85288 305.803 8.85288C307.377 8.85288 307.983 8.6557 308.756 7.89044C309.714 6.94367 310.012 5.33396 309.483 3.97006C308.786 2.17179 304.74 1.68681 301.01 2.95427ZM154.202 6.13762C155.029 6.90679 155.178 7.36354 155.081 8.83996L154.963 10.6171H150.802C146.72 10.6171 146.638 10.599 146.507 9.68362C146.216 7.64776 146.831 6.07529 148.15 5.48567C149.985 4.66474 152.962 4.98541 154.202 6.13762ZM144.525 16.2349C144.234 16.4282 144.055 17.0073 144.129 17.522C144.259 18.4351 144.367 18.4606 148.598 18.5699L152.934 18.6821L148.475 21.6294C144.454 24.287 144.028 24.6806 144.139 25.6337L144.262 26.6906L150.712 26.7984C156.216 26.8902 157.195 26.8176 157.394 26.3033C157.902 24.995 156.813 24.565 152.698 24.4497L148.725 24.3384L153.132 21.5145C156.798 19.1654 157.539 18.5264 157.539 17.7153C157.539 17.1786 157.406 16.6627 157.242 16.5682C156.611 16.204 145.03 15.9005 144.525 16.2349ZM224.965 17.5741C222.746 18.1438 221.921 20.518 223.327 22.2865L224.18 23.3583H230.266H236.351L237.172 22.3253C238.237 20.9868 238.213 19.7225 237.102 18.5029C236.253 17.571 235.968 17.5181 231.158 17.4028C228.379 17.3362 225.592 17.4134 224.965 17.5741ZM241.741 18.4402C240.552 19.6159 240.5 20.9551 241.59 22.3253C243.319 24.4995 247.109 23.1521 247.109 20.3631C247.109 17.7459 243.684 16.5188 241.741 18.4402ZM150.486 30.9568C143.816 33.5634 142.86 34.3252 144.163 35.9972C144.654 36.6272 155.164 41 156.187 41C156.874 41 157.568 39.7204 157.201 39.1319C157.045 38.8822 156.246 38.4008 155.426 38.0621L153.935 37.4458L154.053 35.01C154.169 32.6139 154.195 32.5625 155.674 31.8757C156.5 31.4915 157.278 30.9152 157.402 30.5953C157.656 29.9402 156.885 28.8335 156.203 28.8723C155.957 28.8864 153.385 29.8245 150.486 30.9568ZM224.527 32.8786C222.482 33.9022 222.097 36.5472 223.787 37.9617C224.522 38.5772 225.678 38.6478 234.996 38.6478C245.344 38.6478 245.389 38.6443 246.248 37.7406C247.819 36.0854 247.183 33.6148 244.97 32.7825C243.346 32.1717 225.774 32.2544 224.527 32.8786ZM151.991 34.9234C151.991 35.8937 151.933 36.6876 151.863 36.6876C151.469 36.6876 147.778 35.3621 147.51 35.1241C147.252 34.8948 150.577 33.3678 151.694 33.2032C151.857 33.1789 151.991 33.9531 151.991 34.9234Z" fill="url(#paint0_linear_2_57)"/>
<defs>
<linearGradient id="paint0_linear_2_57" x1="0" y1="0" x2="10.4952" y2="80.634" gradientUnits="userSpaceOnUse">
<stop stop-color="#F15A24"/>
<stop offset="1" stop-color="#D4145A"/>
</linearGradient>
</defs>
</svg>
