<svg width="none" height="58" viewBox="0 0 58 58" fill="none" xmlns="http://www.w3.org/2000/svg">
<path fill-rule="evenodd" clip-rule="evenodd" d="M23.9594 19.409V21.5242C23.9594 22.496 23.1387 23.2838 22.1264 23.2838C21.1141 23.2838 20.2935 22.496 20.2935 21.5242V17.6907C20.2935 16.7658 21.0392 15.9988 22.0003 15.9352C24.0105 15.8021 26.9696 15.8755 29.5063 16.8589C30.7972 17.3593 32.0614 18.1275 33.0043 19.3008C33.9647 20.4958 34.4989 21.9969 34.4989 23.7866C34.4989 25.9587 33.5621 27.5638 32.3456 28.6581C33.3092 29.1454 34.2772 29.7616 35.1859 30.5263C37.7883 32.7166 39.844 36.0824 39.932 40.9123C39.9497 41.884 39.1435 42.6854 38.1314 42.7024C37.1192 42.7194 36.2843 41.9455 36.2666 40.9738C36.1975 37.1815 34.6309 34.7395 32.7693 33.1727C30.8959 31.596 28.6642 30.8624 27.211 30.668H14.3364C13.3241 30.668 12.5034 29.8802 12.5034 28.9084C12.5034 27.9366 13.3241 27.1487 14.3364 27.1487H27.3307C27.7057 27.1487 28.6615 26.9484 29.4933 26.3646C30.2435 25.838 30.833 25.0523 30.833 23.7866C30.833 22.7044 30.5243 21.9762 30.1018 21.4505C29.6618 20.903 29.003 20.4591 28.1337 20.1221C26.8808 19.6364 25.368 19.4412 23.9594 19.409Z" fill="url(#paint0_linear_320_819)"/>
<path fill-rule="evenodd" clip-rule="evenodd" d="M0.523661 27.8399C0.523661 12.742 13.2729 0.502686 29 0.502686C30.3015 0.502686 31.3566 1.51559 31.3566 2.76508C31.3566 4.01456 30.3015 5.02747 29 5.02747C15.876 5.02747 5.23698 15.2409 5.23698 27.8399C5.23698 40.4389 15.876 50.6524 29 50.6524C41.3286 50.6524 51.4644 41.6393 52.6476 30.1023H43.8273C42.5257 30.1023 41.4706 29.0894 41.4706 27.8399C41.4706 26.5905 42.5257 25.5775 43.8273 25.5775H55.1196C56.4212 25.5775 57.4763 26.5905 57.4763 27.8399C57.4763 42.9379 44.727 55.1772 29 55.1772C13.2729 55.1772 0.523661 42.9379 0.523661 27.8399Z" fill="url(#paint1_linear_320_819)"/>
<path fill-rule="evenodd" clip-rule="evenodd" d="M41.5034 12.8831C40.4187 12.8831 39.5395 13.7272 39.5395 14.7684C39.5395 15.8097 40.4187 16.6538 41.5034 16.6538C42.588 16.6538 43.4672 15.8097 43.4672 14.7684C43.4672 13.7272 42.588 12.8831 41.5034 12.8831ZM35.8736 14.7684C35.8736 11.7836 38.3941 9.36383 41.5034 9.36383C44.6126 9.36383 47.1331 11.7836 47.1331 14.7684C47.1331 17.7533 44.6126 20.173 41.5034 20.173C38.3941 20.173 35.8736 17.7533 35.8736 14.7684Z" fill="url(#paint2_linear_320_819)"/>
<defs>
<linearGradient id="paint0_linear_320_819" x1="12.5034" y1="15.8847" x2="39.3147" y2="43.3066" gradientUnits="userSpaceOnUse">
<stop stop-color="#F15A24"/>
<stop offset="1" stop-color="#D4145A"/>
</linearGradient>
<linearGradient id="paint1_linear_320_819" x1="0.523661" y1="0.502686" x2="55.1526" y2="57.4079" gradientUnits="userSpaceOnUse">
<stop stop-color="#F15A24"/>
<stop offset="1" stop-color="#D4145A"/>
</linearGradient>
<linearGradient id="paint2_linear_320_819" x1="35.8736" y1="9.36383" x2="46.6738" y2="20.614" gradientUnits="userSpaceOnUse">
<stop stop-color="#F15A24"/>
<stop offset="1" stop-color="#D4145A"/>
</linearGradient>
</defs>
</svg>
