<svg width="none" height="39" viewBox="0 0 162 39" fill="none" xmlns="http://www.w3.org/2000/svg">
    <path d="M52.6833 5.34055C52.7084 5.85427 52.6299 6.36779 52.4524 6.84986C52.275 7.33192 52.0023 7.77244 51.651 8.14459C51.2573 8.55726 50.7819 8.88127 50.2558 9.09543C49.7296 9.30959 49.1647 9.40907 48.5979 9.38737C48.0275 9.39253 47.4619 9.2824 46.9342 9.06345C46.4065 8.8445 45.9275 8.52116 45.5252 8.11241C45.1229 7.70367 44.8056 7.21777 44.5918 6.68329C44.378 6.14881 44.272 5.57652 44.2802 5.00007C44.2721 4.4236 44.3781 3.85131 44.5919 3.31682C44.8057 2.78233 45.1231 2.29641 45.5253 1.88763C45.9276 1.47884 46.4066 1.15542 46.9342 0.936373C47.4619 0.717326 48.0275 0.607066 48.5979 0.612071C49.1844 0.61028 49.765 0.730117 50.3038 0.964169C50.8042 1.16919 51.2496 1.49077 51.6038 1.90273L50.8732 2.64164C50.5949 2.31047 50.2449 2.04838 49.8504 1.87557C49.4559 1.70277 49.0274 1.62388 48.5979 1.64499C48.1656 1.64273 47.7374 1.72867 47.3387 1.89766C46.9401 2.06666 46.5793 2.31523 46.2779 2.62849C45.9766 2.94175 45.7409 3.31326 45.5849 3.72077C45.429 4.12828 45.3561 4.5634 45.3705 5.00007C45.3601 5.65414 45.5423 6.29658 45.8937 6.84591C46.2451 7.39524 46.75 7.82673 47.3444 8.08566C47.9388 8.34459 48.5958 8.4193 49.2323 8.30031C49.8687 8.18132 50.4558 7.87399 50.9192 7.4173C51.3457 6.95283 51.5929 6.34898 51.6158 5.71575H48.5979V4.70677H52.6251C52.6632 4.91585 52.6826 5.12796 52.6833 5.34055Z" fill="white" stroke="white" stroke-width="0.2" stroke-miterlimit="10"/>
    <path d="M59.068 1.83231H55.2831V4.49551H58.6961V5.50463H55.2831V8.16783H59.068V9.20005H54.2158V0.800091H59.068V1.83231Z" fill="white" stroke="white" stroke-width="0.2" stroke-miterlimit="10"/>
    <path d="M63.5712 9.20005H62.5026V1.83231H60.1813V0.800091H65.8925V1.83231H63.5712V9.20005Z" fill="white" stroke="white" stroke-width="0.2" stroke-miterlimit="10"/>
    <path d="M70.0251 9.20005V0.800091H71.0924V9.20005H70.0251Z" fill="white" stroke="white" stroke-width="0.2" stroke-miterlimit="10"/>
    <path d="M75.8296 9.20005H74.7609V1.83231H72.4397V0.800091H78.1509V1.83231H75.8296V9.20005Z" fill="white" stroke="white" stroke-width="0.2" stroke-miterlimit="10"/>
    <path d="M88.9625 8.11449C88.1536 8.92964 87.0578 9.38737 85.9155 9.38737C84.7732 9.38737 83.6775 8.92964 82.8685 8.11449C82.4683 7.70482 82.1537 7.21799 81.9434 6.68296C81.7331 6.14793 81.6314 5.57563 81.6443 5.00007C81.6314 4.42451 81.7331 3.8522 81.9434 3.31718C82.1537 2.78215 82.4683 2.29532 82.8685 1.88565C83.2684 1.48142 83.7432 1.16087 84.2657 0.942329C84.7883 0.723793 85.3484 0.611567 85.9139 0.612074C86.4795 0.612581 87.0394 0.725812 87.5616 0.945285C88.0837 1.16476 88.558 1.48616 88.9571 1.89111C89.3576 2.2997 89.6728 2.78544 89.884 3.31949C90.0952 3.85355 90.1982 4.42504 90.1867 5.00007C90.1993 5.57558 90.0974 6.14779 89.8871 6.68277C89.6768 7.21774 89.3624 7.70461 88.9625 8.11449ZM83.6571 7.41114C84.2563 8.01565 85.0682 8.35517 85.9148 8.35517C86.7614 8.35517 87.5734 8.01565 88.1725 7.41114C88.4798 7.09323 88.7201 6.71566 88.8788 6.30125C89.0376 5.88685 89.1117 5.4442 89.0965 5.00007C89.1117 4.55594 89.0376 4.11329 88.8788 3.69889C88.7201 3.28448 88.4798 2.90691 88.1725 2.589C87.5734 1.98449 86.7614 1.64497 85.9148 1.64497C85.0682 1.64497 84.2563 1.98449 83.6571 2.589C83.3503 2.90717 83.1104 3.28481 82.9519 3.69918C82.7933 4.11354 82.7194 4.55606 82.7346 5.00007C82.7194 5.44408 82.7933 5.8866 82.9519 6.30096C83.1104 6.71533 83.3503 7.09297 83.6571 7.41114Z" fill="white" stroke="white" stroke-width="0.2" stroke-miterlimit="10"/>
    <path d="M91.6855 9.20005V0.800091H92.9855L97.0247 7.33456H97.0707L97.0247 5.71575V0.800091H98.0934V9.20005H96.9787L92.7528 2.34904H92.7068L92.7528 3.96786V9.20005H91.6855Z" fill="white" stroke="white" stroke-width="0.2" stroke-miterlimit="10"/>
    <path d="M81.3807 21.4522C80.2164 21.4567 79.0796 21.8097 78.1137 22.4667C77.1478 23.1237 76.3961 24.0552 75.9537 25.1436C75.5112 26.232 75.3977 27.4286 75.6275 28.5821C75.8574 29.7357 76.4203 30.7945 77.2451 31.625C78.0699 32.4555 79.1197 33.0204 80.2619 33.2483C81.4041 33.4762 82.5876 33.3569 83.6628 32.9056C84.738 32.4542 85.6568 31.691 86.3032 30.7123C86.9495 29.7336 87.2945 28.5833 87.2945 27.4065C87.3059 26.6195 87.1606 25.8382 86.8672 25.109C86.5737 24.3799 86.1382 23.7179 85.5865 23.1624C85.0347 22.6068 84.378 22.1692 83.6555 21.8754C82.933 21.5816 82.1594 21.4377 81.3807 21.4522ZM81.3807 31.0153C80.6637 31.067 79.9479 30.8993 79.3265 30.534C78.7052 30.1688 78.207 29.6229 77.8968 28.9675C77.5867 28.3121 77.479 27.5775 77.5877 26.8593C77.6965 26.1412 78.0166 25.4728 78.5065 24.9411C78.9964 24.4094 79.6333 24.0391 80.3343 23.8784C81.0353 23.7177 81.768 23.774 82.4369 24.04C83.1058 24.3061 83.6799 24.7695 84.0846 25.3699C84.4893 25.9704 84.7057 26.68 84.7057 27.4065C84.7275 27.8655 84.6581 28.3242 84.5018 28.7557C84.3455 29.1872 84.1054 29.5828 83.7956 29.919C83.4857 30.2553 83.1125 30.5255 82.6978 30.7138C82.283 30.9021 81.8352 31.0046 81.3807 31.0153ZM68.4799 21.4522C67.3157 21.4567 66.1788 21.8096 65.2129 22.4666C64.2469 23.1236 63.4953 24.0551 63.0528 25.1435C62.6103 26.2319 62.4968 27.4285 62.7266 28.582C62.9564 29.7356 63.5193 30.7945 64.3441 31.625C65.1689 32.4555 66.2187 33.0203 67.361 33.2483C68.5032 33.4762 69.6866 33.357 70.7618 32.9056C71.8371 32.4543 72.7559 31.691 73.4022 30.7123C74.0486 29.7336 74.3936 28.5833 74.3936 27.4065C74.405 26.6195 74.2597 25.8382 73.9663 25.1091C73.6728 24.38 73.2373 23.7179 72.6856 23.1624C72.1339 22.6069 71.4772 22.1692 70.7547 21.8754C70.0322 21.5816 69.2586 21.4377 68.4799 21.4522ZM68.4799 31.0153C67.7629 31.067 67.0471 30.8993 66.4257 30.534C65.8044 30.1688 65.3062 29.6229 64.9961 28.9675C64.6859 28.3121 64.5782 27.5775 64.6869 26.8593C64.7957 26.1412 65.1158 25.4728 65.6057 24.9411C66.0956 24.4094 66.7325 24.0391 67.4335 23.8784C68.1345 23.7177 68.8672 23.774 69.5361 24.04C70.205 24.3061 70.7791 24.7695 71.1838 25.3699C71.5885 25.9704 71.8049 26.68 71.8049 27.4065C71.8267 27.8655 71.7574 28.3243 71.6011 28.7558C71.4448 29.1872 71.2047 29.5828 70.8948 29.9191C70.585 30.2553 70.2117 30.5256 69.797 30.7138C69.3822 30.9021 68.9344 31.0046 68.4799 31.0153ZM53.1337 23.2792V25.8052H59.1145C59.0282 26.99 58.5485 28.1107 57.7532 28.9855C57.1538 29.6029 56.4331 30.0865 55.6374 30.405C54.8417 30.7236 53.9888 30.87 53.1337 30.8348C51.3856 30.8109 49.7171 30.0923 48.4893 28.8344C47.2614 27.5765 46.573 25.8806 46.573 24.1136C46.573 22.3466 47.2614 20.6507 48.4893 19.3928C49.7171 18.135 51.3856 17.4163 53.1337 17.3924C54.8129 17.3702 56.4328 18.0186 57.6417 19.1967L59.4046 17.4149C58.5798 16.5897 57.6003 15.9391 56.5235 15.5015C55.4466 15.0638 54.2942 14.8478 53.1337 14.8662C51.921 14.8484 50.7168 15.0744 49.5913 15.5311C48.4657 15.9878 47.4412 16.6661 46.5774 17.5266C45.7135 18.3871 45.0276 19.4125 44.5593 20.5434C44.0911 21.6742 43.85 22.8878 43.85 24.1136C43.85 25.3395 44.0911 26.5531 44.5593 27.6839C45.0276 28.8147 45.7135 29.8401 46.5774 30.7006C47.4412 31.5611 48.4657 32.2394 49.5913 32.6961C50.7168 33.1528 51.921 33.3788 53.1337 33.361C54.3187 33.4107 55.5006 33.2051 56.6009 32.7579C57.7013 32.3107 58.695 31.6321 59.5161 30.7672C60.9739 29.159 61.7509 27.0379 61.6809 24.858C61.6866 24.3286 61.6417 23.7999 61.5468 23.2792H53.1337ZM115.894 25.2413C115.54 24.1628 114.866 23.2206 113.964 22.5427C113.061 21.8648 111.975 21.4841 110.851 21.4522C110.094 21.457 109.346 21.6168 108.651 21.9221C107.957 22.2273 107.332 22.6717 106.812 23.2282C106.293 23.7848 105.891 24.442 105.63 25.1602C105.369 25.8783 105.255 26.6425 105.294 27.4065C105.277 28.1894 105.416 28.9677 105.704 29.6949C105.991 30.4222 106.42 31.0834 106.966 31.6392C107.512 32.195 108.163 32.634 108.88 32.9298C109.597 33.2256 110.366 33.3723 111.141 33.361C112.111 33.3664 113.068 33.1281 113.925 32.6676C114.782 32.207 115.512 31.5385 116.05 30.7221L114.042 29.3689C113.741 29.8739 113.315 30.2912 112.807 30.5799C112.298 30.8685 111.724 31.0185 111.141 31.0153C110.541 31.0385 109.947 30.8789 109.438 30.5572C108.929 30.2354 108.527 29.7664 108.284 29.211L116.162 25.9181L115.894 25.2413ZM107.86 27.2262C107.833 26.7928 107.891 26.3582 108.031 25.9478C108.172 25.5374 108.392 25.1594 108.678 24.8359C108.965 24.5125 109.313 24.2501 109.701 24.0641C110.09 23.8782 110.511 23.7723 110.94 23.7528C111.387 23.7231 111.833 23.827 112.222 24.0517C112.61 24.2763 112.925 24.6116 113.127 25.0159L107.86 27.2262ZM101.456 33.0001H104.044V15.4979H101.456V33.0001ZM97.2156 22.7829H97.1264C96.7328 22.3508 96.2525 22.0085 95.7176 21.779C95.1826 21.5495 94.6054 21.4381 94.0244 21.4522C92.5053 21.5176 91.0698 22.1735 90.0178 23.283C88.9657 24.3925 88.3784 25.8699 88.3784 27.4066C88.3784 28.9434 88.9657 30.4207 90.0178 31.5302C91.0698 32.6397 92.5053 33.2956 94.0244 33.361C94.6077 33.3767 95.1873 33.2637 95.723 33.03C96.2587 32.7963 96.7376 32.4475 97.1264 32.0078H97.2156V32.8648C97.2156 35.1429 96.0106 36.3608 94.069 36.3608C93.4219 36.3451 92.7941 36.1351 92.2656 35.7575C91.737 35.3799 91.3316 34.8519 91.1011 34.2406L88.8471 35.188C89.2719 36.2333 89.9959 37.1266 90.9262 37.7535C91.8566 38.3803 92.9509 38.7122 94.069 38.7064C97.1041 38.7064 99.6704 36.9021 99.6704 32.5039V21.813H97.2156V22.7829ZM94.2477 31.0153C93.3529 30.9386 92.5193 30.5252 91.9118 29.8569C91.3042 29.1886 90.9671 28.3142 90.9671 27.4066C90.9671 26.4991 91.3042 25.6246 91.9118 24.9563C92.5193 24.288 93.3529 23.8746 94.2477 23.7979C94.6928 23.8199 95.129 23.9322 95.5303 24.1282C95.9316 24.3242 96.2897 24.5998 96.5833 24.9387C96.8769 25.2775 97.1001 25.6727 97.2394 26.1005C97.3787 26.5284 97.4313 26.9802 97.3941 27.4291C97.4289 27.8752 97.3744 28.3238 97.2337 28.748C97.093 29.1723 96.8691 29.5635 96.5753 29.8983C96.2816 30.2331 95.9241 30.5046 95.5241 30.6965C95.1242 30.8884 94.69 30.9969 94.2477 31.0153ZM128.02 15.4982H121.826V33.0001H124.411V26.3691H128.02C128.751 26.4096 129.482 26.2991 130.17 26.0442C130.857 25.7894 131.486 25.3956 132.018 24.8869C132.549 24.3781 132.973 23.7652 133.262 23.0855C133.552 22.4058 133.701 21.6736 133.701 20.9337C133.701 20.1937 133.552 19.4615 133.262 18.7818C132.973 18.1021 132.549 17.4892 132.018 16.9805C131.486 16.4718 130.857 16.078 130.17 15.8231C129.482 15.5682 128.751 15.4577 128.02 15.4982ZM128.087 23.9334H124.411V17.934H128.087C128.482 17.9258 128.874 17.9973 129.241 18.1443C129.609 18.2913 129.943 18.511 130.225 18.7903C130.508 19.0697 130.732 19.4032 130.885 19.7712C131.038 20.1393 131.117 20.5345 131.117 20.9337C131.117 21.333 131.038 21.7282 130.885 22.0963C130.732 22.4643 130.508 22.7978 130.225 23.0772C129.943 23.3565 129.609 23.5762 129.241 23.7232C128.874 23.8702 128.482 23.9417 128.087 23.9334ZM144.06 21.42C143.117 21.3644 142.178 21.5883 141.359 22.0642C140.54 22.5402 139.876 23.2476 139.448 24.0995L141.743 25.0677C141.971 24.6449 142.315 24.2983 142.735 24.0703C143.154 23.8423 143.63 23.7429 144.105 23.7842C144.76 23.7195 145.415 23.9202 145.924 24.3423C146.434 24.7643 146.757 25.3733 146.823 26.0358V26.216C145.993 25.7703 145.067 25.5383 144.127 25.5405C141.654 25.5405 139.137 26.914 139.137 29.4809C139.161 30.0219 139.292 30.5525 139.523 31.0412C139.754 31.5299 140.079 31.9667 140.48 32.3258C140.881 32.685 141.349 32.959 141.857 33.1317C142.365 33.3044 142.902 33.3722 143.436 33.3312C144.087 33.3699 144.736 33.2316 145.316 32.9306C145.896 32.6296 146.386 32.177 146.734 31.62H146.823V32.971H149.318V26.2611C149.318 23.1538 147.023 21.42 144.06 21.42ZM143.748 31.0119C142.902 31.0119 141.721 30.5842 141.721 29.5258C141.721 28.175 143.191 27.657 144.461 27.657C145.286 27.6348 146.102 27.837 146.823 28.2425C146.728 29.0016 146.364 29.7003 145.799 30.2094C145.234 30.7186 144.505 31.0036 143.748 31.0119ZM158.407 21.8028L155.444 29.3907H155.355L152.281 21.8028H149.496L154.108 32.408L151.479 38.3073H154.174L161.281 21.8028H158.407ZM135.127 33.0001H137.711V15.4982H135.127V33.0001Z" fill="white"/>
    <path d="M0.963765 3.52014H0.964031L0.963501 3.51123C0.923649 2.84159 1.13609 2.18202 1.55729 1.66488L18.5684 18.8584V19.1443L1.55698 36.3374C1.13589 35.8204 0.923542 35.1609 0.963499 34.4915L0.963765 34.4915V34.4825V3.52014Z" fill="white" stroke="#E5E5E5" stroke-width="0.3"/>
    <path d="M24.4938 13.2185L24.494 13.2186L31.2714 17.1107L31.2715 17.1107C32.2118 17.6507 32.6481 18.3415 32.6481 19.0018C32.6481 19.662 32.2118 20.3531 31.2714 20.8933L24.4944 24.7852L24.494 24.7855L24.4641 24.8025L18.8684 19.1443V18.8584L24.465 13.2019L24.4938 13.2185Z" fill="white" stroke="#1A1A28" stroke-width="0.3"/>
    <path d="M4.25867 36.4053L4.24906 36.4108L4.24036 36.4177C3.85362 36.7233 3.3735 36.8825 2.88321 36.8678C2.44561 36.8548 2.02415 36.704 1.67678 36.4383L18.7184 19.2147L24.325 24.8818L4.25867 36.4053Z" fill="white" stroke="#1A1A28" stroke-width="0.3"/>
    <path d="M4.24036 1.58501L4.24906 1.59188L4.25867 1.59741L24.325 13.1209L18.7184 18.7881L1.67677 1.56435C2.02415 1.29868 2.44561 1.14789 2.88321 1.13483C3.3735 1.12018 3.85362 1.27933 4.24036 1.58501Z" fill="white" stroke="#1A1A28" stroke-width="0.3"/>
</svg>
    