<svg width="none" height="35" viewBox="0 0 134 35" fill="none" xmlns="http://www.w3.org/2000/svg">
<path d="M19.9727 16.4059C19.9871 15.2791 20.2844 14.1743 20.8368 13.1943C21.3892 12.2142 22.1788 11.3908 23.1322 10.8006C22.5266 9.92967 21.7276 9.2129 20.7987 8.70725C19.8698 8.20161 18.8366 7.92102 17.7811 7.88777C15.5297 7.64981 13.347 9.24429 12.1997 9.24429C11.0303 9.24429 9.26383 7.91139 7.36169 7.9508C6.13132 7.99082 4.93224 8.35107 3.88126 8.99645C2.83028 9.64183 1.96326 10.5503 1.36466 11.6334C-1.22833 16.1538 0.705807 22.7972 3.18968 26.4511C4.43241 28.2404 5.88481 30.239 7.78524 30.1681C9.64493 30.0904 10.3395 28.974 12.5843 28.974C14.8083 28.974 15.4599 30.1681 17.3989 30.123C19.3944 30.0904 20.6517 28.3259 21.8508 26.5197C22.7437 25.2448 23.4308 23.8358 23.8866 22.3448C22.7273 21.8511 21.7379 21.0246 21.0419 19.9685C20.3459 18.9124 19.974 17.6734 19.9727 16.4059Z" fill="white"/>
<path d="M16.3103 5.4847C17.3983 4.16952 17.9344 2.47908 17.8046 0.772362C16.1423 0.948159 14.6068 1.74811 13.504 3.01283C12.9649 3.63068 12.5519 4.34947 12.2888 5.12811C12.0257 5.90675 11.9176 6.72997 11.9706 7.55071C12.8021 7.55933 13.6246 7.37787 14.3763 7.02001C15.128 6.66214 15.7893 6.13719 16.3103 5.4847Z" fill="white"/>
<path d="M43.4804 25.6385H37.1342L35.6101 30.1697H32.9221L38.9332 13.4054H41.7259L47.737 30.1697H45.0031L43.4804 25.6385ZM37.7914 23.5476H42.8219L40.342 16.1938H40.2726L37.7914 23.5476Z" fill="white"/>
<path d="M60.7189 24.0591C60.7189 27.8573 58.6999 30.2976 55.6531 30.2976C54.8813 30.3383 54.1138 30.1592 53.4383 29.7811C52.7629 29.4029 52.2068 28.8408 51.8339 28.1592H51.7762V34.2131H49.2846V17.9472H51.6964V19.9801H51.7422C52.1323 19.3018 52.6977 18.7426 53.3783 18.3621C54.0589 17.9817 54.8293 17.7941 55.6073 17.8193C58.6881 17.8193 60.7189 20.2715 60.7189 24.0591ZM58.1579 24.0591C58.1579 21.5846 56.8878 19.9577 54.95 19.9577C53.0463 19.9577 51.7658 21.6188 51.7658 24.0591C51.7658 26.5218 53.0463 28.1711 54.95 28.1711C56.8878 28.1711 58.1579 26.5561 58.1579 24.0591Z" fill="white"/>
<path d="M74.0792 24.0591C74.0792 27.8573 72.0602 30.2976 69.0134 30.2976C68.2416 30.3383 67.474 30.1592 66.7986 29.7811C66.1231 29.4029 65.5671 28.8408 65.1941 28.1592H65.1365V34.2131H62.6449V17.9472H65.0566V19.9801H65.1024C65.4925 19.3018 66.058 18.7426 66.7386 18.3622C67.4192 17.9817 68.1895 17.7941 68.9675 17.8193C72.0484 17.8193 74.0792 20.2715 74.0792 24.0591ZM71.5181 24.0591C71.5181 21.5846 70.2481 19.9577 68.3103 19.9577C66.4066 19.9577 65.126 21.6188 65.126 24.0591C65.126 26.5218 66.4066 28.1711 68.3103 28.1711C70.2481 28.1711 71.5181 26.5561 71.5181 24.0591H71.5181Z" fill="white"/>
<path d="M82.9092 25.4988C83.0938 27.1612 84.6977 28.2528 86.8895 28.2528C88.9897 28.2528 90.5006 27.1612 90.5006 25.6622C90.5006 24.361 89.5893 23.5818 87.4316 23.0479L85.2738 22.5245C82.2166 21.7809 80.7973 20.3413 80.7973 18.0052C80.7973 15.1127 83.3007 13.1259 86.8555 13.1259C90.3736 13.1259 92.7854 15.1127 92.8666 18.0052H90.3513C90.2008 16.3322 88.8273 15.3223 86.8201 15.3223C84.8129 15.3223 83.4394 16.344 83.4394 17.8311C83.4394 19.0163 84.3167 19.7138 86.4627 20.2476L88.297 20.7012C91.713 21.5146 93.1323 22.8963 93.1323 25.3484C93.1323 28.4847 90.6512 30.4491 86.7049 30.4491C83.0126 30.4491 80.5197 28.5309 80.3586 25.4987L82.9092 25.4988Z" fill="white"/>
<path d="M98.5097 15.0547V17.9472H100.818V19.934H98.5097V26.6721C98.5097 27.7189 98.9719 28.2067 99.9866 28.2067C100.261 28.2019 100.534 28.1825 100.806 28.1486V30.1235C100.35 30.2094 99.8863 30.2482 99.4223 30.2396C96.9647 30.2396 96.0063 29.3101 96.0063 26.9397V19.934H94.2413V17.9472H96.0063V15.0547H98.5097Z" fill="white"/>
<path d="M102.155 24.0591C102.155 20.2135 104.404 17.7969 107.912 17.7969C111.431 17.7969 113.67 20.2134 113.67 24.0591C113.67 27.9153 111.443 30.3213 107.912 30.3213C104.382 30.3213 102.155 27.9153 102.155 24.0591ZM111.132 24.0591C111.132 21.4211 109.931 19.8641 107.912 19.8641C105.893 19.8641 104.694 21.433 104.694 24.0591C104.694 26.7077 105.893 28.2528 107.912 28.2528C109.931 28.2528 111.132 26.7077 111.132 24.0591H111.132Z" fill="white"/>
<path d="M115.725 17.9472H118.101V20.0276H118.159C118.319 19.3778 118.697 18.8036 119.229 18.4015C119.761 17.9993 120.414 17.7938 121.078 17.8193C121.366 17.8183 121.652 17.8497 121.932 17.9129V20.2596C121.57 20.1481 121.191 20.0969 120.813 20.108C120.451 20.0932 120.09 20.1575 119.755 20.2964C119.42 20.4353 119.119 20.6455 118.872 20.9127C118.625 21.1798 118.439 21.4975 118.326 21.844C118.213 22.1906 118.175 22.5576 118.216 22.92V30.1697H115.725L115.725 17.9472Z" fill="white"/>
<path d="M133.42 26.5798C133.085 28.7986 130.939 30.3213 128.193 30.3213C124.662 30.3213 122.47 27.939 122.47 24.1171C122.47 20.2833 124.674 17.7969 128.088 17.7969C131.447 17.7969 133.559 20.1199 133.559 23.8258V24.6853H124.985V24.837C124.946 25.2868 125.002 25.7399 125.149 26.1663C125.297 26.5927 125.533 26.9825 125.842 27.31C126.151 27.6374 126.526 27.895 126.941 28.0655C127.356 28.236 127.803 28.3156 128.251 28.299C128.84 28.3545 129.431 28.2172 129.936 27.9075C130.441 27.5977 130.833 27.1321 131.054 26.5798L133.42 26.5798ZM124.997 22.9319H131.066C131.088 22.5275 131.027 22.1227 130.887 21.7431C130.747 21.3635 130.53 21.0171 130.25 20.7259C129.971 20.4346 129.634 20.2046 129.262 20.0504C128.89 19.8962 128.491 19.8211 128.088 19.8298C127.683 19.8274 127.281 19.9059 126.905 20.0608C126.53 20.2157 126.188 20.4439 125.901 20.7323C125.614 21.0207 125.386 21.3636 125.231 21.7411C125.075 22.1187 124.996 22.5234 124.997 22.9319V22.9319Z" fill="white"/>
<path d="M37.4792 0.786851C38.0015 0.749106 38.5257 0.828567 39.0139 1.0195C39.5021 1.21044 39.9421 1.50808 40.3022 1.89098C40.6623 2.27387 40.9335 2.73246 41.0963 3.23368C41.259 3.7349 41.3093 4.26624 41.2434 4.78938C41.2434 7.36282 39.8621 8.84208 37.4792 8.84208H34.5895V0.786851H37.4792ZM35.832 7.7029H37.3404C37.7136 7.72537 38.0872 7.66374 38.4338 7.52251C38.7804 7.38128 39.0914 7.164 39.3442 6.88649C39.5969 6.60898 39.785 6.27821 39.8947 5.91828C40.0045 5.55834 40.0331 5.1783 39.9786 4.8058C40.0292 4.43477 39.9976 4.05708 39.8862 3.69979C39.7747 3.34249 39.5862 3.01444 39.334 2.73913C39.0819 2.46382 38.7724 2.24808 38.4277 2.10736C38.083 1.96665 37.7117 1.90443 37.3404 1.92518H35.832V7.7029Z" fill="white"/>
<path d="M42.647 5.79986C42.6091 5.40037 42.6545 4.99731 42.7803 4.61651C42.9061 4.23572 43.1096 3.88561 43.3776 3.58863C43.6457 3.29166 43.9725 3.05437 44.3369 2.892C44.7014 2.72963 45.0956 2.64575 45.4941 2.64575C45.8927 2.64575 46.2869 2.72963 46.6513 2.892C47.0158 3.05437 47.3426 3.29166 47.6106 3.58863C47.8787 3.88561 48.0822 4.23572 48.208 4.61651C48.3338 4.99731 48.3792 5.40037 48.3412 5.79986C48.3799 6.19976 48.3351 6.60339 48.2096 6.9848C48.0841 7.3662 47.8808 7.71696 47.6126 8.01452C47.3445 8.31208 47.0175 8.54986 46.6526 8.71258C46.2878 8.8753 45.8932 8.95936 45.4941 8.95936C45.0951 8.95936 44.7005 8.8753 44.3356 8.71258C43.9708 8.54986 43.6438 8.31208 43.3756 8.01452C43.1075 7.71696 42.9042 7.3662 42.7787 6.9848C42.6532 6.60339 42.6084 6.19976 42.647 5.79986ZM47.1157 5.79986C47.1157 4.48217 46.5278 3.71159 45.4961 3.71159C44.4604 3.71159 43.8778 4.48217 43.8778 5.79988C43.8778 7.12813 44.4605 7.89277 45.4961 7.89277C46.5279 7.89275 47.1157 7.12283 47.1157 5.79986H47.1157Z" fill="white"/>
<path d="M55.9104 8.84196H54.6744L53.4266 4.36481H53.3324L52.0898 8.84196H50.8656L49.2015 2.76301H50.41L51.4915 7.40161H51.5805L52.8217 2.76301H53.9648L55.206 7.40161H55.3003L56.3765 2.76301H57.568L55.9104 8.84196Z" fill="white"/>
<path d="M58.9677 2.76301H60.1146V3.7287H60.2037C60.3547 3.38186 60.6094 3.09111 60.9324 2.89697C61.2553 2.70283 61.6304 2.61498 62.0053 2.64567C62.299 2.62343 62.594 2.66803 62.8683 2.77616C63.1426 2.88429 63.3893 3.05318 63.5899 3.27032C63.7906 3.48745 63.9402 3.74728 64.0276 4.03053C64.1151 4.31379 64.1381 4.61322 64.0949 4.90665V8.8419H62.9035V5.20791C62.9035 4.23101 62.4819 3.74519 61.6007 3.74519C61.4013 3.73584 61.2022 3.77001 61.0171 3.84539C60.832 3.92076 60.6652 4.03554 60.5283 4.18186C60.3914 4.32817 60.2875 4.50257 60.2238 4.6931C60.1601 4.88363 60.138 5.08577 60.1591 5.28569V8.84196H58.9677L58.9677 2.76301Z" fill="white"/>
<path d="M65.9935 0.389954H67.1849V8.84195H65.9935V0.389954Z" fill="white"/>
<path d="M68.8412 5.79986C68.8033 5.40034 68.8487 4.99726 68.9746 4.61645C69.1004 4.23564 69.3039 3.88552 69.572 3.58853C69.8401 3.29155 70.1669 3.05426 70.5314 2.89189C70.8959 2.72951 71.2901 2.64564 71.6887 2.64564C72.0872 2.64564 72.4814 2.72951 72.8459 2.89189C73.2104 3.05426 73.5372 3.29155 73.8053 3.58853C74.0734 3.88552 74.2769 4.23564 74.4028 4.61645C74.5286 4.99726 74.574 5.40034 74.5361 5.79986C74.5747 6.19978 74.5298 6.60341 74.4043 6.98481C74.2788 7.36622 74.0754 7.71697 73.8072 8.01452C73.5391 8.31207 73.2121 8.54984 72.8472 8.71255C72.4823 8.87527 72.0877 8.95933 71.6887 8.95933C71.2896 8.95933 70.895 8.87527 70.5301 8.71255C70.1653 8.54984 69.8382 8.31207 69.5701 8.01452C69.3019 7.71697 69.0985 7.36622 68.973 6.98481C68.8475 6.60341 68.8026 6.19978 68.8412 5.79986ZM73.3099 5.79986C73.3099 4.48217 72.722 3.71159 71.6903 3.71159C70.6546 3.71159 70.072 4.48217 70.072 5.79987C70.072 7.12813 70.6547 7.89277 71.6903 7.89277C72.722 7.89275 73.3099 7.12283 73.3099 5.79986H73.3099Z" fill="white"/>
<path d="M75.7904 7.12284C75.7904 6.02859 76.5996 5.39776 78.0359 5.30811L79.6712 5.21319V4.68849C79.6712 4.04644 79.2496 3.6839 78.4353 3.6839C77.7701 3.6839 77.3093 3.92977 77.177 4.35956H76.0235C76.1453 3.31542 77.1207 2.64569 78.4902 2.64569C80.0038 2.64569 80.8575 3.4044 80.8575 4.68849V8.84198H79.7105V7.98769H79.6163C79.4249 8.29413 79.1562 8.54394 78.8376 8.71163C78.519 8.87931 78.162 8.95885 77.8029 8.94214C77.5494 8.96868 77.2933 8.94145 77.0509 8.86221C76.8085 8.78297 76.5854 8.65347 76.3958 8.48206C76.2062 8.31065 76.0543 8.10114 75.9501 7.86703C75.8458 7.63292 75.7914 7.37941 75.7904 7.12284ZM79.6712 6.6034V6.09517L78.197 6.19009C77.3655 6.24612 76.9885 6.53089 76.9885 7.0668C76.9885 7.61391 77.4598 7.9323 78.108 7.9323C78.2979 7.95165 78.4897 7.93234 78.6721 7.87552C78.8544 7.8187 79.0235 7.72552 79.1694 7.60154C79.3152 7.47755 79.4348 7.32529 79.5211 7.15382C79.6073 6.98234 79.6584 6.79515 79.6712 6.6034Z" fill="white"/>
<path d="M82.4234 5.79986C82.4234 3.87901 83.4041 2.66217 84.9295 2.66217C85.3068 2.64466 85.6812 2.73565 86.0091 2.92451C86.3369 3.11337 86.6046 3.39229 86.7808 3.72867H86.8699V0.389954H88.0613V8.84195H86.9196V7.88152H86.8254C86.6355 8.21563 86.3585 8.49108 86.0243 8.67803C85.6901 8.86498 85.3115 8.95631 84.9295 8.94213C83.3936 8.9422 82.4234 7.72533 82.4234 5.79986ZM83.6542 5.79986C83.6542 7.08922 84.2578 7.86508 85.2673 7.86508C86.2715 7.86508 86.8922 7.07803 86.8922 5.80514C86.8922 4.53819 86.265 3.73992 85.2673 3.73992C84.2643 3.73992 83.6542 4.52105 83.6542 5.79986H83.6542Z" fill="white"/>
<path d="M92.9909 5.79986C92.953 5.40037 92.9984 4.99731 93.1242 4.61651C93.25 4.23572 93.4535 3.88561 93.7215 3.58863C93.9896 3.29166 94.3163 3.05437 94.6808 2.892C95.0453 2.72963 95.4395 2.64575 95.838 2.64575C96.2366 2.64575 96.6308 2.72963 96.9952 2.892C97.3597 3.05437 97.6865 3.29166 97.9545 3.58863C98.2226 3.88561 98.4261 4.23572 98.5519 4.61651C98.6777 4.99731 98.7231 5.40037 98.6851 5.79986C98.7238 6.19976 98.679 6.60339 98.5535 6.9848C98.428 7.3662 98.2247 7.71696 97.9565 8.01452C97.6884 8.31208 97.3614 8.54986 96.9965 8.71258C96.6317 8.8753 96.2371 8.95936 95.838 8.95936C95.439 8.95936 95.0444 8.8753 94.6795 8.71258C94.3147 8.54986 93.9877 8.31208 93.7195 8.01452C93.4514 7.71696 93.2481 7.3662 93.1226 6.9848C92.9971 6.60339 92.9523 6.19976 92.9909 5.79986ZM97.4596 5.79986C97.4596 4.48217 96.8717 3.71159 95.84 3.71159C94.8043 3.71159 94.2217 4.48217 94.2217 5.79988C94.2217 7.12813 94.8044 7.89277 95.84 7.89277C96.8717 7.89275 97.4596 7.12283 97.4596 5.79986Z" fill="white"/>
<path d="M100.284 2.76301H101.431V3.7287H101.52C101.671 3.38186 101.926 3.09111 102.249 2.89697C102.571 2.70283 102.947 2.61498 103.321 2.64567C103.615 2.62343 103.91 2.66803 104.184 2.77616C104.459 2.88429 104.705 3.05318 104.906 3.27032C105.107 3.48745 105.256 3.74728 105.344 4.03053C105.431 4.31379 105.454 4.61322 105.411 4.90665V8.8419H104.22V5.20791C104.22 4.23101 103.798 3.74519 102.917 3.74519C102.717 3.73584 102.518 3.77001 102.333 3.84539C102.148 3.92076 101.981 4.03554 101.844 4.18186C101.708 4.32817 101.604 4.50257 101.54 4.6931C101.476 4.88363 101.454 5.08577 101.475 5.28569V8.84196H100.284V2.76301Z" fill="white"/>
<path d="M112.144 1.24954V2.7907H113.452V3.80123H112.144V6.92706C112.144 7.56382 112.404 7.84265 112.997 7.84265C113.149 7.84216 113.301 7.83292 113.452 7.81497V8.81428C113.238 8.85282 113.021 8.87332 112.804 8.87558C111.478 8.87558 110.951 8.40624 110.951 7.23422V3.80117H109.992V2.79064H110.951V1.24954H112.144Z" fill="white"/>
<path d="M115.079 0.389954H116.26V3.73991H116.354C116.513 3.38983 116.775 3.09743 117.104 2.90256C117.433 2.70769 117.814 2.61983 118.195 2.65095C118.487 2.63493 118.78 2.68406 119.051 2.79482C119.322 2.90557 119.566 3.07523 119.764 3.29169C119.963 3.50814 120.111 3.76606 120.2 4.04705C120.288 4.32803 120.313 4.62515 120.274 4.9172V8.84196H119.082V5.21317C119.082 4.24219 118.633 3.75044 117.791 3.75044C117.586 3.73353 117.38 3.76188 117.187 3.8335C116.994 3.90512 116.82 4.01829 116.675 4.16508C116.53 4.31188 116.419 4.48876 116.349 4.68334C116.279 4.87793 116.252 5.08552 116.271 5.2916V8.84194H115.079L115.079 0.389954Z" fill="white"/>
<path d="M127.222 7.20061C127.06 7.75619 126.709 8.23677 126.231 8.55827C125.753 8.87977 125.177 9.02172 124.606 8.95929C124.208 8.96987 123.813 8.89316 123.447 8.73449C123.082 8.57583 122.755 8.33901 122.49 8.04048C122.225 7.74194 122.027 7.38884 121.911 7.00568C121.794 6.62252 121.762 6.21848 121.817 5.82161C121.764 5.42352 121.796 5.01861 121.912 4.6343C122.028 4.24999 122.225 3.89526 122.489 3.59411C122.753 3.29296 123.078 3.05243 123.442 2.8888C123.807 2.72517 124.202 2.64226 124.6 2.64568C126.28 2.64568 127.294 3.80128 127.294 5.71018V6.1288H123.031V6.19603C123.012 6.41911 123.04 6.64366 123.112 6.85527C123.185 7.06688 123.301 7.26089 123.452 7.42486C123.603 7.58882 123.787 7.71913 123.991 7.80741C124.196 7.8957 124.416 7.94002 124.638 7.93753C124.923 7.97198 125.212 7.92031 125.468 7.78908C125.724 7.65785 125.935 7.453 126.075 7.20057L127.222 7.20061ZM123.031 5.24153H126.08C126.095 5.03751 126.067 4.83258 125.999 4.63991C125.931 4.44724 125.823 4.27109 125.683 4.12278C125.543 3.97448 125.374 3.85729 125.186 3.77875C124.999 3.70021 124.797 3.66206 124.594 3.66675C124.388 3.66415 124.183 3.7031 123.992 3.78133C123.802 3.85956 123.628 3.97547 123.482 4.12223C123.337 4.26899 123.222 4.44364 123.144 4.63587C123.067 4.82811 123.028 5.03404 123.031 5.24153H123.031Z" fill="white"/>
</svg>
