<svg width="none" height="14" viewBox="0 0 14 14" fill="none" xmlns="http://www.w3.org/2000/svg">
<path fill-rule="evenodd" clip-rule="evenodd" d="M7.00061 0.600098C5.26245 0.600098 5.04432 0.607698 4.36165 0.638765C3.68031 0.669965 3.21523 0.777833 2.8083 0.936101C2.38736 1.09957 2.03029 1.31824 1.67455 1.67411C1.31855 2.02985 1.09988 2.38692 0.935876 2.80772C0.777208 3.21479 0.669207 3.68 0.63854 4.36107C0.608006 5.04374 0.600006 5.26201 0.600006 7.00016C0.600006 8.73831 0.60774 8.95578 0.638673 9.63846C0.670007 10.3198 0.777875 10.7849 0.93601 11.1918C1.09961 11.6127 1.31828 11.9698 1.67415 12.3256C2.02975 12.6816 2.38682 12.9008 2.8075 13.0642C3.2147 13.2225 3.6799 13.3304 4.36111 13.3616C5.04379 13.3926 5.26179 13.4002 6.99981 13.4002C8.73809 13.4002 8.95556 13.3926 9.63823 13.3616C10.3196 13.3304 10.7852 13.2225 11.1924 13.0642C11.6132 12.9008 11.9697 12.6816 12.3253 12.3256C12.6813 11.9698 12.9 11.6127 13.064 11.1919C13.2213 10.7849 13.3293 10.3197 13.3613 9.63859C13.392 8.95592 13.4 8.73831 13.4 7.00016C13.4 5.26201 13.392 5.04388 13.3613 4.3612C13.3293 3.67986 13.2213 3.21479 13.064 2.80785C12.9 2.38692 12.6813 2.02985 12.3253 1.67411C11.9693 1.31811 11.6133 1.09944 11.192 0.936101C10.784 0.777833 10.3186 0.669965 9.6373 0.638765C8.95463 0.607698 8.73729 0.600098 6.99861 0.600098H7.00061ZM6.42644 1.75343C6.59684 1.75316 6.78698 1.75343 7.00058 1.75343C8.7094 1.75343 8.91193 1.75956 9.58674 1.79023C10.2107 1.81876 10.5494 1.92303 10.775 2.01063C11.0737 2.12663 11.2866 2.2653 11.5105 2.4893C11.7345 2.7133 11.8732 2.92664 11.9894 3.22531C12.077 3.45064 12.1814 3.78931 12.2098 4.41332C12.2405 5.08799 12.2472 5.29066 12.2472 6.99868C12.2472 8.7067 12.2405 8.90937 12.2098 9.58404C12.1813 10.208 12.077 10.5467 11.9894 10.7721C11.8734 11.0707 11.7345 11.2834 11.5105 11.5073C11.2865 11.7313 11.0738 11.8699 10.775 11.9859C10.5497 12.0739 10.2107 12.1779 9.58674 12.2065C8.91207 12.2371 8.7094 12.2438 7.00058 12.2438C5.29163 12.2438 5.08909 12.2371 4.41442 12.2065C3.79041 12.1777 3.45174 12.0734 3.22601 11.9858C2.92734 11.8698 2.714 11.7311 2.49 11.5071C2.266 11.2831 2.12733 11.0703 2.01106 10.7715C1.92346 10.5462 1.81906 10.2075 1.79066 9.58351C1.75999 8.90883 1.75386 8.70616 1.75386 6.99708C1.75386 5.28799 1.75999 5.08639 1.79066 4.41172C1.81919 3.78771 1.92346 3.44904 2.01106 3.22344C2.12706 2.92477 2.266 2.71143 2.49 2.48743C2.714 2.26343 2.92734 2.12476 3.22601 2.00849C3.45161 1.92049 3.79041 1.81649 4.41442 1.78783C5.00482 1.76116 5.23363 1.75316 6.42644 1.75182V1.75343ZM10.4169 2.81611C9.99288 2.81611 9.64888 3.15971 9.64888 3.58385C9.64888 4.00785 9.99288 4.35185 10.4169 4.35185C10.8409 4.35185 11.1849 4.00785 11.1849 3.58385C11.1849 3.15984 10.8409 2.81611 10.4169 2.81611ZM7.00062 3.71345C5.18553 3.71345 3.71392 5.18506 3.71392 7.00015C3.71392 8.81523 5.18553 10.2862 7.00062 10.2862C8.8157 10.2862 10.2868 8.81523 10.2868 7.00015C10.2868 5.18506 8.8157 3.71345 7.00062 3.71345ZM7.00059 4.86679C8.17874 4.86679 9.13395 5.82187 9.13395 7.00015C9.13395 8.17829 8.17874 9.1335 7.00059 9.1335C5.82231 9.1335 4.86724 8.17829 4.86724 7.00015C4.86724 5.82187 5.82231 4.86679 7.00059 4.86679Z" fill="white"/>
</svg>
