<svg width="none" height="10" viewBox="0 0 12 10" fill="none" xmlns="http://www.w3.org/2000/svg">
<path fill-rule="evenodd" clip-rule="evenodd" d="M5.6406 2.75395L5.66578 3.16917L5.2461 3.11833C3.71843 2.92343 2.38383 2.26245 1.25067 1.15236L0.696681 0.601544L0.553988 1.0083C0.251813 1.91502 0.444869 2.87258 1.0744 3.51661C1.41015 3.87252 1.33461 3.92336 0.755438 3.71151C0.553988 3.64372 0.377719 3.59287 0.360931 3.6183C0.302175 3.67761 0.503625 4.44875 0.663106 4.75381C0.881344 5.17752 1.32621 5.59274 1.81305 5.83849L2.22434 6.03339L1.73751 6.04187C1.26746 6.04187 1.25067 6.05034 1.30103 6.22829C1.46891 6.77911 2.13201 7.36381 2.87066 7.61803L3.39108 7.79599L2.93781 8.06716C2.26631 8.45696 1.4773 8.67729 0.688288 8.69423C0.310569 8.70271 0 8.7366 0 8.76203C0 8.84677 1.02404 9.32131 1.61999 9.50774C3.40786 10.0586 5.53148 9.82128 7.1263 8.88066C8.25945 8.21121 9.39261 6.88079 9.92142 5.59274C10.2068 4.90635 10.4922 3.65219 10.4922 3.05054C10.4922 2.66073 10.5174 2.60989 10.9874 2.14382C11.2644 1.87265 11.5246 1.57606 11.575 1.49132C11.6589 1.33031 11.6505 1.33031 11.2224 1.47437C10.509 1.72859 10.4083 1.69469 10.7608 1.31336C11.021 1.04219 11.3316 0.5507 11.3316 0.406642C11.3316 0.381219 11.2057 0.42359 11.063 0.499856C10.9119 0.584596 10.5761 0.711706 10.3243 0.787972L9.87105 0.932031L9.45976 0.652388C9.23313 0.499856 8.91417 0.330375 8.74629 0.279531C8.31821 0.160895 7.6635 0.177843 7.27738 0.313427C6.22816 0.694758 5.56506 1.67774 5.6406 2.75395Z" fill="white"/>
</svg>
